<svg width="19" height="19" viewBox="0 0 19 19" fill="none" xmlns="http://www.w3.org/2000/svg">
<path d="M16.2217 0.570312H2.22168C1.12168 0.570312 0.22168 1.47031 0.22168 2.57031V16.5703C0.22168 17.6703 1.12168 18.5703 2.22168 18.5703H16.2217C17.3217 18.5703 18.2217 17.6703 18.2217 16.5703V2.57031C18.2217 1.47031 17.3217 0.570312 16.2217 0.570312ZM4.22168 4.57031H6.22168V6.57031H4.22168V4.57031ZM4.22168 8.57031H6.22168V10.5703H4.22168V8.57031ZM4.22168 12.5703H6.22168V14.5703H4.22168V12.5703ZM14.2217 14.5703H8.22168V12.5703H14.2217V14.5703ZM14.2217 10.5703H8.22168V8.57031H14.2217V10.5703ZM14.2217 6.57031H8.22168V4.57031H14.2217V6.57031Z" fill="white"/>
</svg>
