<svg width="36" height="37" viewBox="0 0 36 37" fill="none" xmlns="http://www.w3.org/2000/svg">
<ellipse cx="18" cy="18.5282" rx="18" ry="18.4696" fill="#DFE2E7"/>
<path d="M10 10.3178H13L15 8.26562H21L23 10.3178H26C26.5304 10.3178 27.0391 10.534 27.4142 10.9189C27.7893 11.3037 28 11.8257 28 12.37V24.683C28 25.2273 27.7893 25.7493 27.4142 26.1341C27.0391 26.519 26.5304 26.7352 26 26.7352H10C9.46957 26.7352 8.96086 26.519 8.58579 26.1341C8.21071 25.7493 8 25.2273 8 24.683V12.37C8 11.8257 8.21071 11.3037 8.58579 10.9189C8.96086 10.534 9.46957 10.3178 10 10.3178ZM18 13.3961C16.6739 13.3961 15.4021 13.9366 14.4645 14.8987C13.5268 15.8609 13 17.1658 13 18.5265C13 19.8872 13.5268 21.1921 14.4645 22.1543C15.4021 23.1164 16.6739 23.6569 18 23.6569C19.3261 23.6569 20.5979 23.1164 21.5355 22.1543C22.4732 21.1921 23 19.8872 23 18.5265C23 17.1658 22.4732 15.8609 21.5355 14.8987C20.5979 13.9366 19.3261 13.3961 18 13.3961ZM18 15.4482C18.7956 15.4482 19.5587 15.7725 20.1213 16.3498C20.6839 16.9271 21 17.7101 21 18.5265C21 19.3429 20.6839 20.1259 20.1213 20.7032C19.5587 21.2804 18.7956 21.6048 18 21.6048C17.2044 21.6048 16.4413 21.2804 15.8787 20.7032C15.3161 20.1259 15 19.3429 15 18.5265C15 17.7101 15.3161 16.9271 15.8787 16.3498C16.4413 15.7725 17.2044 15.4482 18 15.4482Z" fill="black"/>
</svg>
