<svg width="36" height="36" viewBox="0 0 36 36" fill="none" xmlns="http://www.w3.org/2000/svg">
<path d="M3 4.5H33C34.575 4.5 36 5.925 36 7.5V28.5C36 30.075 34.575 31.5 33 31.5H3C1.425 31.5 0 30.075 0 28.5V7.5C0 5.925 1.425 4.5 3 4.5ZM21 9V10.5H33V9H21ZM21 12V13.5H32.25H33V12H21ZM21 15V16.5H31.5V15H21ZM12 20.865C9 20.865 3 22.5 3 25.5V27H21V25.5C21 22.5 15 20.865 12 20.865ZM12 9C10.8065 9 9.66193 9.47411 8.81802 10.318C7.97411 11.1619 7.5 12.3065 7.5 13.5C7.5 14.6935 7.97411 15.8381 8.81802 16.682C9.66193 17.5259 10.8065 18 12 18C13.1935 18 14.3381 17.5259 15.182 16.682C16.0259 15.8381 16.5 14.6935 16.5 13.5C16.5 12.3065 16.0259 11.1619 15.182 10.318C14.3381 9.47411 13.1935 9 12 9Z" fill="white"/>
</svg>
