<svg width="55" height="54" viewBox="0 0 55 54" fill="none" xmlns="http://www.w3.org/2000/svg">
<rect x="0.5" width="54" height="54" rx="27" fill="#0F973D"/>
<path d="M17.8336 16H41.8336V32H17.8336V16ZM29.8336 20C30.8944 20 31.9119 20.4214 32.662 21.1716C33.4122 21.9217 33.8336 22.9391 33.8336 24C33.8336 25.0609 33.4122 26.0783 32.662 26.8284C31.9119 27.5786 30.8944 28 29.8336 28C28.7727 28 27.7553 27.5786 27.0051 26.8284C26.255 26.0783 25.8336 25.0609 25.8336 24C25.8336 22.9391 26.255 21.9217 27.0051 21.1716C27.7553 20.4214 28.7727 20 29.8336 20ZM23.1669 18.6667C23.1669 19.3739 22.886 20.0522 22.3859 20.5523C21.8858 21.0524 21.2075 21.3333 20.5002 21.3333V26.6667C21.2075 26.6667 21.8858 26.9476 22.3859 27.4477C22.886 27.9478 23.1669 28.6261 23.1669 29.3333H36.5002C36.5002 28.6261 36.7812 27.9478 37.2813 27.4477C37.7814 26.9476 38.4597 26.6667 39.1669 26.6667V21.3333C38.4597 21.3333 37.7814 21.0524 37.2813 20.5523C36.7812 20.0522 36.5002 19.3739 36.5002 18.6667H23.1669ZM12.5002 21.3333H15.1669V34.6667H36.5002V37.3333H12.5002V21.3333Z" fill="white"/>
</svg>
