<svg width="55" height="54" viewBox="0 0 55 54" fill="none" xmlns="http://www.w3.org/2000/svg">
<rect x="0.5" width="54" height="54" rx="27" fill="#00798F"/>
<path d="M27.5001 26.3346C26.616 26.3346 25.7682 25.9834 25.1431 25.3583C24.5179 24.7332 24.1667 23.8854 24.1667 23.0013C24.1667 22.1172 24.5179 21.2694 25.1431 20.6443C25.7682 20.0192 26.616 19.668 27.5001 19.668C28.3841 19.668 29.232 20.0192 29.8571 20.6443C30.4822 21.2694 30.8334 22.1172 30.8334 23.0013C30.8334 23.439 30.7472 23.8725 30.5797 24.2769C30.4122 24.6813 30.1666 25.0488 29.8571 25.3583C29.5476 25.6679 29.1801 25.9134 28.7757 26.0809C28.3713 26.2484 27.9378 26.3346 27.5001 26.3346ZM27.5001 13.668C25.0247 13.668 22.6508 14.6513 20.9004 16.4016C19.1501 18.152 18.1667 20.5259 18.1667 23.0013C18.1667 30.0013 27.5001 40.3346 27.5001 40.3346C27.5001 40.3346 36.8334 30.0013 36.8334 23.0013C36.8334 20.5259 35.8501 18.152 34.0997 16.4016C32.3494 14.6513 29.9754 13.668 27.5001 13.668Z" fill="white"/>
</svg>
