<svg width="18" height="18" viewBox="0 0 18 18" fill="none" xmlns="http://www.w3.org/2000/svg">
<path d="M8.80196 4.4868C6.30479 4.4868 4.29055 6.50148 4.29055 8.99922C4.29055 11.497 6.30479 13.5116 8.80196 13.5116C11.2991 13.5116 13.3134 11.497 13.3134 8.99922C13.3134 6.50148 11.2991 4.4868 8.80196 4.4868ZM8.80196 11.9329C7.18822 11.9329 5.86896 10.6172 5.86896 8.99922C5.86896 7.38119 7.18429 6.06556 8.80196 6.06556C10.4196 6.06556 11.735 7.38119 11.735 8.99922C11.735 10.6172 10.4157 11.9329 8.80196 11.9329ZM14.5502 4.30222C14.5502 4.88738 14.079 5.35473 13.4979 5.35473C12.9129 5.35473 12.4456 4.88345 12.4456 4.30222C12.4456 3.72099 12.9168 3.24972 13.4979 3.24972C14.079 3.24972 14.5502 3.72099 14.5502 4.30222ZM17.5382 5.37043C17.4714 3.96055 17.1494 2.71168 16.1168 1.68274C15.0881 0.653799 13.8395 0.331764 12.4299 0.261073C10.9772 0.178601 6.62282 0.178601 5.17006 0.261073C3.76442 0.327836 2.51583 0.649871 1.48319 1.67881C0.450552 2.70775 0.132515 3.95662 0.0618405 5.36651C-0.0206135 6.81959 -0.0206135 11.1749 0.0618405 12.628C0.128589 14.0379 0.450552 15.2868 1.48319 16.3157C2.51583 17.3446 3.76049 17.6667 5.17006 17.7374C6.62282 17.8198 10.9772 17.8198 12.4299 17.7374C13.8395 17.6706 15.0881 17.3486 16.1168 16.3157C17.1455 15.2868 17.4675 14.0379 17.5382 12.628C17.6206 11.1749 17.6206 6.82352 17.5382 5.37043ZM15.6613 14.1871C15.3551 14.9569 14.7622 15.5499 13.9887 15.8601C12.8304 16.3196 10.082 16.2136 8.80196 16.2136C7.52196 16.2136 4.76957 16.3157 3.61521 15.8601C2.84564 15.5538 2.25276 14.9608 1.94258 14.1871C1.48319 13.0286 1.5892 10.2795 1.5892 8.99922C1.5892 7.71893 1.48712 4.96593 1.94258 3.81131C2.24883 3.04157 2.84172 2.44855 3.61521 2.1383C4.7735 1.67881 7.52196 1.78485 8.80196 1.78485C10.082 1.78485 12.8344 1.68274 13.9887 2.1383C14.7583 2.44463 15.3512 3.03764 15.6613 3.81131C16.1207 4.96985 16.0147 7.71893 16.0147 8.99922C16.0147 10.2795 16.1207 13.0325 15.6613 14.1871Z" fill="#727A86"/>
</svg>
