<svg xmlns="http://www.w3.org/2000/svg" width="16" height="16" viewBox="0 0 16 16" fill="none">
  <path d="M6.66634 1.33203C5.92634 1.33203 5.33301 1.92536 5.33301 2.66536V4.66536C5.33301 5.40536 5.92634 5.9987 6.66634 5.9987H7.33301V7.33203H1.33301V8.66536H3.99967V9.9987H3.33301C2.59301 9.9987 1.99967 10.592 1.99967 11.332V13.332C1.99967 14.072 2.59301 14.6654 3.33301 14.6654H5.99967C6.73967 14.6654 7.33301 14.072 7.33301 13.332V11.332C7.33301 10.592 6.73967 9.9987 5.99967 9.9987H5.33301V8.66536H10.6663V9.9987H9.99967C9.25967 9.9987 8.66634 10.592 8.66634 11.332V13.332C8.66634 14.072 9.25967 14.6654 9.99967 14.6654H12.6663C13.4063 14.6654 13.9997 14.072 13.9997 13.332V11.332C13.9997 10.592 13.4063 9.9987 12.6663 9.9987H11.9997V8.66536H14.6663V7.33203H8.66634V5.9987H9.33301C10.073 5.9987 10.6663 5.40536 10.6663 4.66536V2.66536C10.6663 1.92536 10.073 1.33203 9.33301 1.33203H6.66634ZM6.66634 2.66536H9.33301V4.66536H6.66634V2.66536ZM3.33301 11.332H5.99967V13.332H3.33301V11.332ZM9.99967 11.332H12.6663V13.332H9.99967V11.332Z" fill="white"/>
</svg>