<svg width="20" height="20" viewBox="0 0 20 20" fill="none" xmlns="http://www.w3.org/2000/svg">
<path d="M17.8286 0.800781H1.36714C0.612857 0.800781 0 1.39632 0 2.12739V17.8742C0 18.6052 0.612857 19.2008 1.36714 19.2008H17.8286C18.5829 19.2008 19.2 18.6052 19.2 17.8742V2.12739C19.2 1.39632 18.5829 0.800781 17.8286 0.800781ZM5.80286 16.5722H2.95714V7.79114H5.80714V16.5722H5.80286ZM4.38 6.59185C3.46714 6.59185 2.73 5.88132 2.73 5.0106C2.73 4.13989 3.46714 3.42935 4.38 3.42935C5.28857 3.42935 6.03 4.13989 6.03 5.0106C6.03 5.88542 5.29286 6.59185 4.38 6.59185ZM16.47 16.5722H13.6243V12.3008C13.6243 11.2822 13.6029 9.97203 12.1457 9.97203C10.6629 9.97203 10.4357 11.081 10.4357 12.2269V16.5722H7.59V7.79114H10.32V8.99042H10.3586C10.74 8.30042 11.67 7.57346 13.0543 7.57346C15.9343 7.57346 16.47 9.39292 16.47 11.7586V16.5722Z" fill="#727A86"/>
</svg>
