<svg xmlns="http://www.w3.org/2000/svg" width="16" height="17" viewBox="0 0 16 17" fill="none">
  <path d="M12.6667 2.78516H3.33333C2.6 2.78516 2 3.38516 2 4.11849V13.4518C2 14.1852 2.6 14.7852 3.33333 14.7852H12.6667C13.4 14.7852 14 14.1852 14 13.4518V4.11849C14 3.38516 13.4 2.78516 12.6667 2.78516ZM4.66667 5.45182H6V6.78516H4.66667V5.45182ZM4.66667 8.11849H6V9.45182H4.66667V8.11849ZM4.66667 10.7852H6V12.1185H4.66667V10.7852ZM11.3333 12.1185H7.33333V10.7852H11.3333V12.1185ZM11.3333 9.45182H7.33333V8.11849H11.3333V9.45182ZM11.3333 6.78516H7.33333V5.45182H11.3333V6.78516Z" fill="white"/>
</svg>