<svg width="179" height="179" viewBox="0 0 179 179" fill="none" xmlns="http://www.w3.org/2000/svg">
<path d="M121.258 135.699H85.5723V165.184H121.258V135.699Z" fill="#262262"/>
<path d="M121.258 135.699H85.5723V165.184H121.258V135.699Z" fill="black" fill-opacity="0.2"/>
<path opacity="0.1" d="M121.258 135.699H85.5723V165.184H121.258V135.699Z" fill="black"/>
<path d="M135.399 135.703H121.258V165.188H135.399V135.703Z" fill="#262262"/>
<path d="M135.399 135.703H121.258V165.188H135.399V135.703Z" fill="black" fill-opacity="0.2"/>
<path opacity="0.2" d="M135.399 135.703H121.258V165.188H135.399V135.703Z" fill="black"/>
<path d="M134.421 163.156C133.376 161.06 132.339 158.958 131.31 156.848L128.242 150.504L125.214 144.135C124.211 142.009 123.217 139.875 122.231 137.734C123.282 139.832 124.32 141.935 125.346 144.042L128.411 150.386L131.439 156.755C132.446 158.881 133.44 161.015 134.421 163.156Z" fill="#262262"/>
<path d="M134.421 163.156C133.376 161.06 132.339 158.958 131.31 156.848L128.242 150.504L125.214 144.135C124.211 142.009 123.217 139.875 122.231 137.734C123.282 139.832 124.32 141.935 125.346 144.042L128.411 150.386L131.439 156.755C132.446 158.881 133.44 161.015 134.421 163.156Z" fill="black" fill-opacity="0.2"/>
<path d="M134.421 137.734C133.438 139.882 132.444 142.016 131.439 144.135L128.411 150.504L125.346 156.848C124.317 158.955 123.279 161.058 122.231 163.156C123.217 161.008 124.211 158.874 125.214 156.755L128.242 150.386L131.31 144.046C132.339 141.934 133.376 139.83 134.421 137.734Z" fill="#262262"/>
<path d="M134.421 137.734C133.438 139.882 132.444 142.016 131.439 144.135L128.411 150.504L125.346 156.848C124.317 158.955 123.279 161.058 122.231 163.156C123.217 161.008 124.211 158.874 125.214 156.755L128.242 150.386L131.31 144.046C132.339 141.934 133.376 139.83 134.421 137.734Z" fill="black" fill-opacity="0.2"/>
<path d="M105.938 142.072H105.376H104.95L104.71 141.581L104.37 142.072L103.909 141.062L103.475 142.072H102.23H101.66L101.453 141.399L101.259 142.072H100.891V135.703H105.938V142.072Z" fill="white"/>
<path d="M123.41 106.219H96.7852V135.7H123.41V106.219Z" fill="#262262"/>
<path d="M123.41 106.219H96.7852V135.7H123.41V106.219Z" fill="black" fill-opacity="0.2"/>
<path d="M137.156 106.219H123.409V135.704H137.156V106.219Z" fill="#262262"/>
<path d="M137.156 106.219H123.409V135.704H137.156V106.219Z" fill="black" fill-opacity="0.2"/>
<path opacity="0.1" d="M137.156 106.219H123.409V135.704H137.156V106.219Z" fill="black"/>
<g opacity="0.1">
<path d="M121.459 133.67C119.504 131.572 117.566 129.47 115.645 127.362L109.906 121.004L104.253 114.635C102.377 112.509 100.52 110.375 98.6826 108.234C100.64 110.332 102.578 112.436 104.497 114.546L110.225 120.886L115.877 127.255C117.76 129.391 119.621 131.529 121.459 133.67Z" fill="black"/>
<path d="M121.459 108.25C119.618 110.398 117.762 112.532 115.888 114.651L110.235 121.006L104.507 127.349C102.598 129.457 100.66 131.559 98.6934 133.657C100.533 131.509 102.39 129.376 104.264 127.256L109.906 120.902L115.634 114.562C117.56 112.449 119.502 110.345 121.459 108.25Z" fill="black"/>
</g>
<path d="M135.223 130.715H132.813V134.116H135.223V130.715Z" fill="white"/>
<path d="M103.72 63.6516C103.519 63.5227 103.319 63.3974 103.118 63.2757L103.258 63.043L103.866 63.426L103.72 63.6516Z" fill="#4E4E4E"/>
<path d="M94.9775 99.5247H94.7197V99.2562C95.1977 99.2669 95.6759 99.2489 96.1517 99.2025L96.1804 99.471C95.7902 99.4997 95.382 99.5247 94.9775 99.5247ZM97.6339 99.2312L97.5766 98.9698C98.0422 98.8644 98.4993 98.7244 98.9441 98.551L99.0408 98.8016C98.5829 98.9771 98.1127 99.1183 97.6339 99.224V99.2312ZM100.365 98.1572L100.233 97.9245C100.644 97.6842 101.036 97.4112 101.404 97.1082L101.575 97.3123C101.197 97.6284 100.792 97.9123 100.365 98.1607V98.1572ZM102.632 96.2956L102.435 96.113C102.756 95.7599 103.051 95.3842 103.319 94.9889L103.541 95.1392C103.266 95.5486 102.962 95.9375 102.632 96.3027V96.2956ZM104.271 93.8647L104.028 93.7502C104.232 93.319 104.398 92.8711 104.525 92.4113L104.783 92.4829C104.653 92.9587 104.482 93.4223 104.271 93.8683V93.8647ZM105.044 91.0294L104.776 91.0079C104.776 90.8146 104.801 90.6177 104.801 90.4279C104.8 90.1624 104.784 89.8971 104.754 89.6332C104.476 89.6145 104.199 89.5798 103.924 89.5294L103.97 89.2644C104.408 89.3433 104.851 89.3841 105.295 89.3862H105.388V89.6547H105.291H105.023C105.052 89.9138 105.066 90.1744 105.066 90.4351C105.07 90.6284 105.059 90.8325 105.044 91.033V91.0294ZM106.86 89.4757L106.799 89.2143C107.259 89.1053 107.705 88.9418 108.127 88.7274L108.249 88.9673C107.807 89.1923 107.341 89.3641 106.86 89.4792V89.4757ZM102.499 89.1427C102.036 88.9758 101.587 88.7723 101.157 88.5341L101.289 88.3014C101.706 88.5316 102.14 88.728 102.589 88.8885L102.499 89.1427ZM104.425 88.1976C104.268 87.75 104.062 87.3213 103.809 86.9195L104.035 86.7763C104.3 87.194 104.516 87.6409 104.679 88.1081L104.425 88.1976ZM109.48 88.1403L109.308 87.9363C109.671 87.6295 110.004 87.2877 110.3 86.916L110.508 87.0842C110.202 87.4734 109.857 87.8308 109.48 88.1511V88.1403ZM99.943 87.7107L99.8678 87.6391C99.5134 87.3278 99.2312 86.943 99.0408 86.5114L99.2914 86.4112C99.466 86.8062 99.725 87.1582 100.05 87.4422L100.122 87.5067L99.943 87.7107ZM111.338 85.8813L111.109 85.7417C111.36 85.3264 111.592 84.9004 111.796 84.4816L112.04 84.5997C111.832 85.0257 111.596 85.4589 111.338 85.8813ZM102.918 85.8276C102.591 85.5109 102.231 85.2301 101.844 84.9899L101.79 84.9541L101.93 84.725L101.987 84.7608C102.386 85.0127 102.757 85.3068 103.093 85.6379L102.918 85.8276ZM99.363 85.1367L99.141 84.9863C99.2943 84.771 99.4975 84.5959 99.7331 84.4762C99.9688 84.3565 100.23 84.2957 100.494 84.299V84.5675C100.274 84.5662 100.057 84.6171 99.8602 84.7161C99.6635 84.815 99.4931 84.9592 99.363 85.1367ZM112.609 83.25L112.358 83.157C112.524 82.7076 112.666 82.25 112.784 81.7858L113.042 81.8503C112.927 82.3249 112.783 82.7923 112.613 83.25H112.609ZM113.325 80.4111L113.056 80.3753C113.12 79.9004 113.157 79.4223 113.167 78.9433H113.436C113.426 79.4342 113.389 79.9243 113.325 80.4111ZM113.117 77.5113C113.074 77.0307 113.006 76.5528 112.913 76.0793L113.178 76.0256C113.272 76.5051 113.341 76.989 113.386 77.4755L113.117 77.5113ZM112.562 74.6974C112.426 74.2463 112.265 73.7917 112.079 73.3406L112.33 73.2404C112.516 73.695 112.688 74.1604 112.82 74.6187L112.562 74.6974ZM111.488 72.0303C111.274 71.6115 111.034 71.189 110.772 70.7737L111.002 70.6341C111.259 71.053 111.503 71.4826 111.718 71.9086L111.488 72.0303ZM109.981 69.5744C109.706 69.1878 109.408 68.8047 109.101 68.4324L109.308 68.2606C109.62 68.6365 109.92 69.0267 110.2 69.4169L109.981 69.5744ZM108.148 67.3477C107.823 66.9897 107.479 66.6567 107.128 66.3274L107.311 66.1305C107.669 66.467 108.027 66.8143 108.342 67.1651L108.148 67.3477ZM106.047 65.3679C105.689 65.0636 105.299 64.7629 104.916 64.4765L105.073 64.2617C105.463 64.5481 105.85 64.8524 106.219 65.1639L106.047 65.3679Z" fill="#4E4E4E"/>
<path d="M93.2199 99.3941C92.9791 99.3642 92.7401 99.3212 92.5039 99.2653L92.5683 99.0039C92.5683 99.0039 92.8261 99.0683 93.2557 99.1292L93.2199 99.3941Z" fill="#4E4E4E"/>
<path d="M89.6076 98.8607C89.4393 100.293 92.3642 101.095 92.5861 99.2187C92.8081 97.3428 89.7758 97.418 89.6076 98.8607Z" fill="#4E4E4E"/>
<path d="M93.4383 101.232C93.1662 101.772 92.2032 101.847 91.208 101.153C90.5321 100.637 89.961 99.9965 89.5254 99.2662C90.367 99.1785 91.2176 99.2526 92.0314 99.4846C93.2092 99.882 93.7247 100.684 93.4383 101.232Z" fill="#EBEBEB"/>
<path d="M89.5361 99.2656C90.1018 99.5198 90.6567 99.7955 91.2116 100.068C91.7665 100.34 92.3142 100.63 92.8548 100.93C92.2891 100.676 91.7343 100.4 91.1794 100.128C90.6245 99.8563 90.0767 99.5663 89.5361 99.2656Z" fill="#4E4E4E"/>
<path d="M92.135 101.22C92.0064 101.071 91.8869 100.914 91.777 100.751C91.6688 100.589 91.5708 100.42 91.4834 100.246C91.6119 100.395 91.7315 100.552 91.8414 100.715C91.9503 100.877 92.0484 101.045 92.135 101.22Z" fill="#4E4E4E"/>
<path d="M90.9326 99.9645C91.1296 99.9133 91.3292 99.8727 91.5305 99.8428C91.7334 99.8141 91.9378 99.7961 92.1427 99.7891C91.7462 99.8878 91.3408 99.9466 90.9326 99.9645Z" fill="#4E4E4E"/>
<path d="M90.621 100.198C90.4979 100.045 90.4099 99.8668 90.3633 99.6758C90.4864 99.829 90.5744 100.007 90.621 100.198Z" fill="#4E4E4E"/>
<path d="M93.9106 97.4829C93.771 96.8922 92.8545 96.5986 91.7268 97.0425C90.9485 97.389 90.2437 97.8812 89.6504 98.4924C90.4551 98.7711 91.3058 98.8926 92.1564 98.8504C93.3629 98.7502 94.0538 98.0915 93.9106 97.4829Z" fill="#EBEBEB"/>
<path d="M89.6504 98.4923C90.259 98.3778 90.864 98.2346 91.4655 98.095C92.0669 97.9553 92.6683 97.805 93.2554 97.6367C92.6504 97.7513 92.0454 97.8945 91.444 98.0341C90.8425 98.1737 90.2483 98.3241 89.6504 98.4923Z" fill="#4E4E4E"/>
<path d="M92.6323 97.1875C92.4765 97.2983 92.3271 97.4178 92.1848 97.5455C92.0427 97.6792 91.9077 97.8202 91.7803 97.9679C91.9377 97.8592 92.0872 97.7396 92.2278 97.6099C92.3707 97.4771 92.5058 97.3361 92.6323 97.1875Z" fill="#4E4E4E"/>
<path d="M91.165 98.1328C91.5277 98.3216 91.9093 98.4716 92.3035 98.5803C91.9415 98.3899 91.5598 98.2399 91.165 98.1328Z" fill="#4E4E4E"/>
<path d="M90.9319 97.832C90.8539 97.8904 90.783 97.9577 90.7207 98.0325C90.6588 98.1092 90.6048 98.192 90.5596 98.2795C90.6376 98.2199 90.7085 98.1514 90.7708 98.0755C90.8358 98.0024 90.89 97.9204 90.9319 97.832Z" fill="#4E4E4E"/>
<path d="M89.6075 98.8625C89.7101 98.8744 89.8068 98.9165 89.8855 98.9833C89.9642 99.0502 90.0213 99.1388 90.0497 99.2381C90.078 99.3374 90.0764 99.4428 90.0449 99.5411C90.0134 99.6395 89.9535 99.7263 89.8727 99.7906C89.7919 99.8549 89.6939 99.8938 89.591 99.9025C89.4882 99.9112 89.385 99.8892 89.2946 99.8393C89.2042 99.7895 89.1306 99.7139 89.0831 99.6223C89.0356 99.5306 89.0162 99.4269 89.0276 99.3243C89.0437 99.1864 89.1138 99.0605 89.2224 98.974C89.3311 98.8874 89.4695 98.8474 89.6075 98.8625Z" fill="#455A64"/>
<path d="M89.7288 97.82C89.7973 97.8279 89.8634 97.8493 89.9236 97.8829C89.9837 97.9165 90.0366 97.9615 90.0793 98.0156C90.1221 98.0696 90.1537 98.1315 90.1725 98.1977C90.1913 98.264 90.1969 98.3333 90.1889 98.4017C90.1809 98.4701 90.1595 98.5363 90.1259 98.5964C90.0924 98.6566 90.0473 98.7095 89.9933 98.7522C89.9393 98.7949 89.8774 98.8266 89.8111 98.8454C89.7448 98.8642 89.6755 98.8697 89.6071 98.8617C89.469 98.8456 89.3429 98.7752 89.2566 98.6661C89.1704 98.557 89.131 98.4181 89.1471 98.28C89.1632 98.1418 89.2336 98.0158 89.3427 97.9295C89.4518 97.8432 89.5907 97.8038 89.7288 97.82Z" fill="#455A64"/>
<path d="M57.2793 132.574C57.2793 132.574 49.6468 147.857 49.6432 147.857C49.0131 151.011 48.5191 153.793 48.3938 155.254C48.3919 155.262 48.3919 155.27 48.3938 155.279C48.3277 155.617 48.3412 155.966 48.4332 156.299C48.4313 156.307 48.4313 156.316 48.4332 156.324C49.2458 157.147 74.3273 162.922 75.2832 162.829C76.239 162.736 76.035 160.04 75.2402 159.041C74.4454 158.042 65.8284 151.523 65.8284 151.523L73.2891 136.215L57.2793 132.574Z" fill="#D3766A"/>
<path d="M74.9036 162.841C73.962 162.934 49.2564 157.156 48.4474 156.336C48.4462 156.328 48.4462 156.319 48.4474 156.311C48.3537 155.979 48.339 155.63 48.4044 155.291C48.4014 155.283 48.4014 155.274 48.4044 155.266C48.5261 153.805 49.0237 151.023 49.6502 147.866L51.476 144.207L67.3032 148.546L65.8426 151.546C65.8426 151.546 74.0766 158.051 74.8749 159.064C75.6733 160.077 75.8487 162.751 74.9036 162.841Z" fill="#EBEBEB"/>
<path d="M75.2475 162.44C74.2916 162.511 49.1493 156.103 48.3473 155.251C48.0395 154.933 48.759 151.213 49.7579 146.745L49.7901 146.605L66.0576 150.561L65.9824 150.833C65.9824 150.833 74.5064 157.592 75.2904 158.624C76.0744 159.655 76.1997 162.372 75.2475 162.44Z" fill="#4E4E4E"/>
<path d="M75.208 161.392C70.9979 160.211 53.8998 155.829 49.6468 154.977C49.611 154.977 49.6038 154.994 49.6468 155.005C53.796 156.269 70.9299 160.511 75.2008 161.449C75.2832 161.481 75.2975 161.417 75.208 161.392Z" fill="white"/>
<path d="M67.3326 151.233C65.743 150.496 63.638 150.231 62.0628 151.097C62.0019 151.13 62.0628 151.215 62.1057 151.212C63.831 151.104 65.5628 151.181 67.2717 151.441C67.2968 151.443 67.3216 151.436 67.3422 151.421C67.3628 151.407 67.3778 151.386 67.3849 151.361C67.3919 151.337 67.3906 151.312 67.3811 151.288C67.3716 151.265 67.3545 151.246 67.3326 151.233Z" fill="white"/>
<path d="M68.3491 152.262C66.7631 151.528 64.6581 151.263 63.0793 152.126C63.0184 152.158 63.0793 152.244 63.1258 152.244C64.851 152.134 66.5831 152.211 68.2918 152.473C68.3179 152.476 68.344 152.469 68.3656 152.454C68.3872 152.439 68.4028 152.417 68.4097 152.392C68.4165 152.367 68.4142 152.34 68.4031 152.316C68.392 152.292 68.3729 152.273 68.3491 152.262Z" fill="white"/>
<path d="M69.3696 153.297C67.78 152.559 65.675 152.294 64.0998 153.157C64.0389 153.193 64.0998 153.279 64.1463 153.275C65.8704 153.167 67.601 153.244 69.3087 153.504C69.3338 153.506 69.3586 153.499 69.3792 153.484C69.3998 153.47 69.4148 153.449 69.4219 153.425C69.429 153.4 69.4276 153.375 69.4181 153.351C69.4086 153.328 69.3915 153.309 69.3696 153.297Z" fill="white"/>
<path d="M75.8597 161.64C76.2643 161.926 75.781 163.412 75.4266 163.451C75.0721 163.49 47.6887 156.38 47.2555 156.155C46.8224 155.929 47.4166 154.304 47.9715 154.365C48.5264 154.426 75.8597 161.64 75.8597 161.64Z" fill="#262262"/>
<path d="M75.8597 161.64C76.2643 161.926 75.781 163.412 75.4266 163.451C75.0721 163.49 47.6887 156.38 47.2555 156.155C46.8224 155.929 47.4166 154.304 47.9715 154.365C48.5264 154.426 75.8597 161.64 75.8597 161.64Z" fill="black" fill-opacity="0.2"/>
<path d="M53.223 150.481C51.6335 149.107 49.4927 151.577 51.075 152.955C52.6574 154.333 54.8161 151.86 53.223 150.481Z" fill="white"/>
<path d="M51.5225 142.987L69.8664 147.612C69.8664 147.612 86.9645 116.756 86.5814 108.912C86.0551 98.0935 73.3533 64.8281 73.3533 64.8281H58.1455C58.1455 64.8281 68.2375 100.789 68.3771 106.839C68.438 110.004 51.5225 142.987 51.5225 142.987Z" fill="#455A64"/>
<path d="M70.6506 143.89C69.6732 143.5 60.9416 140.979 54.426 139.594C54.4188 139.596 54.4126 139.601 54.4082 139.607C54.4037 139.613 54.4014 139.62 54.4014 139.628C54.4014 139.635 54.4037 139.643 54.4082 139.649C54.4126 139.655 54.4188 139.659 54.426 139.662C56.4773 140.378 69.4226 143.79 70.6362 143.958C70.6649 143.969 70.6935 143.918 70.6506 143.89Z" fill="#4E4E4E"/>
<path d="M69.6374 99.1149C68.4273 94.0384 67.1314 88.9763 65.771 83.9464C64.4106 78.9165 62.9535 73.8401 61.3532 68.8495C61.1599 68.2374 60.9559 67.6323 60.759 67.0237C60.7533 67.0043 60.7401 66.9879 60.7223 66.9781C60.7045 66.9684 60.6835 66.9661 60.6641 66.9718C60.6446 66.9775 60.6282 66.9907 60.6185 67.0085C60.6087 67.0263 60.6065 67.0472 60.6122 67.0667C62.0442 72.0393 63.4762 77.0012 64.833 81.9917C66.1898 86.9822 67.4822 91.9871 68.6994 97.0277C69.0037 98.2736 69.3008 99.5158 69.5908 100.765C69.9278 102.046 70.1884 103.345 70.3713 104.657C70.5218 105.91 70.4355 107.18 70.1171 108.401C69.7716 109.601 69.32 110.768 68.7674 111.888C66.5741 116.65 64.3819 121.412 62.191 126.176C60 130.952 59.6456 132.04 57.537 136.855C57.2756 137.453 57.0143 138.051 56.7637 138.645C56.7637 138.685 56.8031 138.72 56.8245 138.677C59.2231 133.959 59.5919 132.824 61.8365 128.02C64.0812 123.215 66.3115 118.354 68.5383 113.517C69.5407 111.333 70.7185 109.107 70.8689 106.665C71.0192 104.116 70.2173 101.56 69.6374 99.1149Z" fill="#4E4E4E"/>
<path d="M70.4678 138.618L71.0549 155.444C71.1516 158.666 71.2912 161.483 71.5024 162.933C71.5007 162.941 71.5007 162.95 71.5024 162.958C71.5144 163.302 71.605 163.639 71.7673 163.942L71.7888 163.964C72.7661 164.583 98.5028 164.569 99.4013 164.265C100.3 163.96 99.5052 161.383 98.5063 160.584C97.5075 159.786 87.6482 155.386 87.6482 155.386L86.9 138.578L70.4678 138.618Z" fill="#D3766A"/>
<path d="M70.9336 151.998C70.9336 151.998 71.0553 155.442 71.0553 155.453C71.152 158.675 71.2916 161.492 71.5028 162.942C71.5011 162.95 71.5011 162.959 71.5028 162.967C71.5517 163.305 71.6407 163.635 71.7677 163.952L71.7892 163.973C72.7666 164.592 98.5032 164.578 99.4018 164.274C100.3 163.97 99.5056 161.392 98.5068 160.594C97.5079 159.795 87.6486 155.395 87.6486 155.395L87.5734 151.891L70.9336 151.998Z" fill="#EBEBEB"/>
<path d="M99.4158 164.244C98.5064 164.534 72.5658 164.134 71.5848 163.489C71.2268 163.249 71.0478 159.469 70.9834 154.897V154.754L87.7235 154.826V155.112C87.7235 155.112 97.5864 159.705 98.5852 160.525C99.584 161.345 100.329 163.965 99.4158 164.244Z" fill="#4E4E4E"/>
<path d="M99.1406 163.249C94.7694 163.074 77.12 162.78 72.7847 162.941C72.7489 162.941 72.7489 162.966 72.7847 162.966C77.1129 163.235 94.7659 163.389 99.1406 163.324C99.2301 163.303 99.2337 163.249 99.1406 163.249Z" fill="white"/>
<path d="M89.12 155.176C87.4052 154.818 85.293 155.058 83.9613 156.25C83.9076 156.296 83.9613 156.368 84.0329 156.354C85.6857 155.849 87.3874 155.522 89.1093 155.376C89.13 155.37 89.1483 155.357 89.1616 155.34C89.1749 155.322 89.1826 155.301 89.1838 155.28C89.185 155.258 89.1795 155.236 89.1681 155.218C89.1567 155.199 89.14 155.185 89.12 155.176Z" fill="white"/>
<path d="M90.3516 155.944C88.6332 155.586 86.5246 155.83 85.1928 157.036C85.1391 157.083 85.1928 157.154 85.2608 157.136C86.9145 156.631 88.6176 156.305 90.3408 156.163C90.3668 156.16 90.3907 156.147 90.4085 156.128C90.4262 156.109 90.4367 156.084 90.438 156.058C90.4392 156.032 90.4313 156.006 90.4155 155.985C90.3997 155.965 90.3771 155.95 90.3516 155.944Z" fill="white"/>
<path d="M91.5794 156.711C89.8646 156.353 87.756 156.593 86.4206 157.785C86.3705 157.831 86.4206 157.903 86.4922 157.889C88.1451 157.385 89.8468 157.057 91.5687 156.911C91.5894 156.905 91.6077 156.892 91.621 156.875C91.6343 156.858 91.642 156.837 91.6432 156.815C91.6443 156.793 91.6389 156.772 91.6275 156.753C91.6161 156.734 91.5993 156.72 91.5794 156.711Z" fill="white"/>
<path d="M99.8275 163.322C100.289 163.508 100.164 165.065 99.8275 165.183C99.491 165.301 71.1875 164.739 70.7256 164.625C70.2638 164.51 70.45 162.788 71.012 162.706C71.5741 162.624 99.8275 163.322 99.8275 163.322Z" fill="#262262"/>
<path d="M99.8275 163.322C100.289 163.508 100.164 165.065 99.8275 165.183C99.491 165.301 71.1875 164.739 70.7256 164.625C70.2638 164.51 70.45 162.788 71.012 162.706C71.5741 162.624 99.8275 163.322 99.8275 163.322Z" fill="black" fill-opacity="0.2"/>
<path d="M75.2226 157.719C73.3574 156.749 71.8466 159.649 73.7154 160.619C75.5841 161.589 77.0913 158.689 75.2226 157.719Z" fill="white"/>
<path d="M73.1644 64.7995C73.0964 65.1109 69.3052 80.1004 68.8326 80.3796C68.2956 80.6983 82.6084 99.9551 84.3054 109.41C85.3794 115.456 87.8854 150.702 87.8854 150.702H69.6345C69.6345 150.702 67.8445 120.769 67.2502 110.906C67.0175 107.079 52.6617 89.3869 51.2978 77.5908C50.8682 73.8748 53.5388 64.7852 53.5388 64.7852L73.1644 64.7995Z" fill="#455A64"/>
<path d="M69.1722 136.46C68.9574 131.502 68.7605 126.533 68.399 121.582C68.1949 118.775 67.7939 116.058 67.5147 113.262C67.5147 113.115 67.3822 113.079 67.3858 113.23C67.5147 118.209 67.9264 123.135 68.1913 128.112C68.4562 133.088 68.7104 134.248 68.9932 139.21C69.1508 142.016 69.2904 144.823 69.5088 147.626C69.5111 147.633 69.5157 147.64 69.5218 147.644C69.5279 147.648 69.5352 147.651 69.5428 147.651C69.5503 147.651 69.5577 147.648 69.5638 147.644C69.5699 147.64 69.5744 147.633 69.5768 147.626C69.5875 142.643 69.3906 141.436 69.1722 136.46Z" fill="#4E4E4E"/>
<path d="M84.3229 109.646C84.1667 108.337 83.913 107.041 83.5639 105.769C83.188 104.537 82.6928 103.344 82.0854 102.207C80.8431 99.8229 79.429 97.5174 78.065 95.2011C76.701 92.8849 75.2798 90.5185 73.8406 88.2058C73.0315 86.9075 72.2189 85.6103 71.4026 84.3143C70.5721 83.0076 69.695 81.726 68.8394 80.4372C68.8327 80.4263 68.822 80.4184 68.8096 80.4154C68.7972 80.4124 68.7841 80.4144 68.7731 80.4211C68.7622 80.4277 68.7544 80.4384 68.7514 80.4509C68.7483 80.4633 68.7504 80.4764 68.757 80.4873C70.1532 82.8286 71.5351 85.1735 72.9313 87.5149C74.3275 89.8562 75.7022 92.2047 77.0769 94.5531C78.4517 96.9016 79.787 99.1785 81.083 101.527C81.7211 102.642 82.2705 103.806 82.7262 105.007C83.15 106.251 83.458 107.532 83.6462 108.834C84.1331 111.866 84.5305 114.92 85.1391 117.923C85.1415 117.931 85.146 117.937 85.1521 117.941C85.1582 117.946 85.1656 117.948 85.1731 117.948C85.1807 117.948 85.188 117.946 85.1941 117.941C85.2002 117.937 85.2048 117.931 85.2071 117.923C85.0174 115.16 84.688 112.392 84.3229 109.646Z" fill="#4E4E4E"/>
<path d="M86.2771 147.575C85.2353 147.439 77.2841 147.163 70.6325 147.449C70.5895 147.449 70.5931 147.514 70.6325 147.518C72.7984 147.707 85.0455 147.793 86.2663 147.65C86.2985 147.646 86.3129 147.582 86.2771 147.575Z" fill="#4E4E4E"/>
<path d="M71.2125 79.3572C69.353 80.0347 67.5561 80.8733 65.8425 81.8632C65.8277 81.8699 65.8163 81.8821 65.8106 81.8972C65.8049 81.9123 65.8054 81.9291 65.812 81.9438C65.8187 81.9585 65.8309 81.97 65.846 81.9757C65.8611 81.9814 65.8779 81.9809 65.8926 81.9742C67.7041 81.1938 69.5549 80.4491 71.3234 79.572C71.3519 79.5573 71.3734 79.5319 71.3831 79.5013C71.3929 79.4708 71.3901 79.4376 71.3754 79.4091C71.3606 79.3807 71.3352 79.3592 71.3047 79.3495C71.2741 79.3397 71.2409 79.3425 71.2125 79.3572Z" fill="#4E4E4E"/>
<path d="M71.7609 66.9496C71.7609 66.8887 71.6463 66.8744 71.6463 66.9496C71.6467 68.9725 71.5451 70.9942 71.342 73.007C71.2561 73.9413 70.5043 79.093 68.8861 78.735C68.614 78.6705 68.478 78.4056 68.435 77.9939C68.4396 77.4595 68.5117 76.9278 68.6498 76.4115C68.8288 75.3375 68.972 74.2635 69.0651 73.1573C69.2549 71.1247 69.2333 69.078 69.0007 67.0498C68.9977 67.0384 68.9909 67.0283 68.9815 67.021C68.9721 67.0138 68.9606 67.0099 68.9488 67.0099C68.9369 67.0099 68.9254 67.0138 68.916 67.021C68.9066 67.0283 68.8999 67.0384 68.8969 67.0498C68.9438 69.8674 68.7786 72.6844 68.4028 75.4772C68.1988 76.8197 67.5221 78.8424 68.9291 79.0572C70.336 79.272 71.2847 75.8817 71.4566 74.9545C71.9044 72.3106 72.0067 69.6198 71.7609 66.9496Z" fill="#4E4E4E"/>
<path d="M68.9285 78.8435C68.785 79.193 68.6654 79.5518 68.5705 79.9175C68.4674 80.1982 68.4165 80.4955 68.4201 80.7946C68.4218 80.8068 68.4273 80.8182 68.4356 80.8273C68.444 80.8363 68.4549 80.8426 68.467 80.8454C68.479 80.8481 68.4916 80.8471 68.503 80.8425C68.5145 80.8379 68.5243 80.8299 68.5311 80.8196C68.7002 80.5557 68.827 80.2671 68.907 79.964C69.0323 79.6311 69.1612 79.3053 69.265 78.9688C69.2816 78.9241 69.2798 78.8747 69.26 78.8314C69.2402 78.7881 69.204 78.7545 69.1594 78.7378C69.1147 78.7212 69.0654 78.723 69.022 78.7428C68.9787 78.7626 68.9451 78.7988 68.9285 78.8435Z" fill="#4E4E4E"/>
<path d="M69.6909 115.718C69.5191 113.169 69.5298 110.48 68.4451 108.117C67.8689 106.966 67.2059 105.86 66.4618 104.809C65.7219 103.678 64.9916 102.541 64.2708 101.398C61.4068 96.8258 58.643 92.1611 56.1263 87.3818C54.9127 85.0799 53.7957 82.7027 53.1871 80.1609C52.5936 77.4862 52.4809 74.7271 52.8542 72.0129C52.9401 71.3362 53.0332 70.6632 53.1442 69.9902C53.1445 69.981 53.1417 69.9721 53.1362 69.9648C53.1307 69.9575 53.1228 69.9524 53.1139 69.9503C53.1051 69.9482 53.0957 69.9492 53.0875 69.9532C53.0793 69.9572 53.0728 69.964 53.069 69.9723C52.4799 72.5534 52.2785 75.2078 52.4711 77.8483C52.7466 80.3728 53.4576 82.8304 54.5726 85.1121C55.6824 87.5143 57.0034 89.8269 58.3065 92.1289C59.6502 94.5155 61.0333 96.8676 62.4557 99.1851C63.8877 101.498 65.3627 103.764 66.8412 106.041C67.5954 107.115 68.1832 108.296 68.5847 109.546C68.9102 110.849 69.0974 112.184 69.1432 113.527C69.5012 119.161 70.9332 137.896 71.4415 143.502C71.5024 144.218 71.5668 144.934 71.6349 145.65C71.6328 145.657 71.6325 145.665 71.634 145.673C71.6355 145.68 71.6386 145.687 71.6433 145.694C71.648 145.7 71.654 145.705 71.6609 145.708C71.6679 145.711 71.6755 145.713 71.6832 145.713C71.6909 145.713 71.6985 145.711 71.7054 145.708C71.7123 145.705 71.7184 145.7 71.723 145.694C71.7277 145.687 71.7309 145.68 71.7324 145.673C71.7339 145.665 71.7336 145.657 71.7315 145.65C71.5167 140.022 70.0597 121.335 69.6909 115.718Z" fill="#4E4E4E"/>
<path d="M60.9308 69.7393C60.9308 69.6999 60.8664 69.7142 60.8664 69.7393C60.8127 71.3038 60.8664 72.9219 60.2542 74.3933C59.7029 75.7501 58.5931 76.7024 57.3508 77.4148C56.6284 77.8202 55.8838 78.1847 55.1205 78.5067C55.0668 78.5318 55.0883 78.6177 55.1491 78.5998C56.5811 78.1416 58.0597 77.6439 59.259 76.6845C60.5406 75.6535 61.1027 74.1606 61.1635 72.5496C61.1855 71.6072 61.1075 70.6652 60.9308 69.7393Z" fill="#4E4E4E"/>
<path d="M68.8754 44.2402C70.9232 50.5267 76.4543 61.2345 78.4305 62.5268C80.1811 63.6689 88.4187 62.3944 92.0345 61.5244C93.3805 61.1987 90.3519 50.9384 88.9163 51.3143C87.1943 51.7654 82.0642 52.9217 81.6918 52.6353C81.3195 52.3489 76.1464 45.9765 72.4805 42.2247C69.1439 38.8272 68.1022 41.8631 68.8754 44.2402Z" fill="#D3766A"/>
<path d="M91.2429 61.6021C91.9339 61.5162 97.78 61.2441 100.461 59.7871C101.893 59.0102 105.549 56.4398 105.183 55.5161C104.85 54.6748 103.676 55.1331 103.676 55.1331C103.676 55.1331 105.291 53.9624 104.818 52.7953C104.346 51.6282 102.395 52.5053 102.395 52.5053C102.395 52.5053 103.966 51.1807 103.411 50.053C102.856 48.9253 101.045 50.1318 101.045 50.1318C101.045 50.1318 102.538 48.9898 101.689 48.2523C100.665 47.3645 98.1487 49.7845 96.4482 50.3502C96.0616 50.4791 88.4434 52.4051 88.4434 52.4051L91.2429 61.6021Z" fill="#D3766A"/>
<path d="M100.981 50.1016C99.1266 51.8737 98.0061 52.3283 95.5287 52.8295C95.4822 52.8295 95.4857 52.9154 95.5287 52.9083C97.9989 52.6398 99.4846 52.271 101.063 50.1875C101.149 50.0837 101.067 50.0156 100.981 50.1016Z" fill="#4E4E4E"/>
<path d="M102.334 52.4629C100.247 54.1383 99.0366 54.6395 96.4805 55.3555C96.4447 55.3555 96.459 55.4307 96.4984 55.4236C99.0616 54.9295 100.537 54.5286 102.402 52.581C102.488 52.4951 102.43 52.3877 102.334 52.4629Z" fill="#4E4E4E"/>
<path d="M103.552 55.1607C101.404 56.6357 100.111 57.2478 97.5407 57.6237C97.5283 57.6237 97.5165 57.6286 97.5078 57.6374C97.499 57.6461 97.4941 57.6579 97.4941 57.6703C97.4941 57.6826 97.499 57.6945 97.5078 57.7032C97.5165 57.7119 97.5283 57.7168 97.5407 57.7168C100.201 57.5879 101.837 56.8397 103.58 55.2323C103.709 55.1321 103.684 55.0712 103.552 55.1607Z" fill="#4E4E4E"/>
<path d="M86.4453 52.7347C86.4453 52.7347 88.5754 50.3254 89.7425 49.4733C90.9096 48.6213 96.4371 47.0461 96.8452 48.2203C97.3715 49.7382 94.3607 51.274 92.7891 51.8325C92.7891 51.8325 94.0099 55.3409 92.0731 56.909C90.1363 58.477 86.4453 52.7347 86.4453 52.7347Z" fill="#D3766A"/>
<path d="M96.8569 48.6914C96.3378 50.4205 94.2256 51.022 92.7399 51.6771C92.7179 51.6866 92.6985 51.7011 92.6831 51.7194C92.6677 51.7378 92.6567 51.7594 92.6512 51.7827C92.6456 51.806 92.6456 51.8303 92.651 51.8536C92.6565 51.8769 92.6673 51.8986 92.6826 51.917C93.0979 53.4206 93.2411 55.6617 92.1886 56.929C92.1599 56.9648 92.2065 57.0149 92.2423 56.9827C93.5561 55.7798 93.5919 53.5638 93.0335 51.9456C94.5693 51.2976 96.66 50.5995 96.8712 48.6986C96.8748 48.6914 96.8605 48.6914 96.8569 48.6914Z" fill="#4E4E4E"/>
<path d="M91.2397 63.3696L88.5403 51.0759L81.8601 52.2895C79.2252 49.2716 73.959 43.2393 71.8361 41.4278C69.3301 39.3013 67.6904 40.898 68.6141 44.12C70.7012 51.484 76.8051 62.2956 78.4018 63.3159C80.718 64.8016 91.2397 63.3696 91.2397 63.3696Z" fill="#262262"/>
<path d="M91.2397 63.3696L88.5403 51.0759L81.8601 52.2895C79.2252 49.2716 73.959 43.2393 71.8361 41.4278C69.3301 39.3013 67.6904 40.898 68.6141 44.12C70.7012 51.484 76.8051 62.2956 78.4018 63.3159C80.718 64.8016 91.2397 63.3696 91.2397 63.3696Z" fill="black" fill-opacity="0.2"/>
<path opacity="0.1" d="M81.7025 56.0304C82.0332 56.1023 82.3701 56.1419 82.7085 56.1486C83.4245 56.2452 83.7395 57.3013 83.0879 57.7023C82.7458 57.913 82.359 58.0406 81.9586 58.0748C81.5582 58.109 81.1554 58.0489 80.7824 57.8992C80.0664 57.6199 79.4614 56.9254 79.6153 56.1092C79.642 55.957 79.7076 55.8143 79.8057 55.695C79.9039 55.5757 80.0312 55.4839 80.1754 55.4284C80.3195 55.3729 80.4756 55.3556 80.6284 55.3783C80.7812 55.401 80.9255 55.4629 81.0473 55.5579C81.2457 55.7414 81.4657 55.9001 81.7025 56.0304ZM79.8552 53.1056C79.5974 54.3228 81.4805 55.3681 82.4435 54.7201C82.5212 54.6614 82.5846 54.5858 82.629 54.4992C82.6734 54.4125 82.6977 54.317 82.7001 54.2196C82.7025 54.1223 82.683 54.0256 82.6429 53.9369C82.6028 53.8481 82.5432 53.7696 82.4686 53.707C82.1858 53.4779 81.9495 53.4421 81.6989 53.2344C81.6113 53.166 81.5341 53.0852 81.4698 52.9946C81.3278 52.7989 81.146 52.6354 80.9364 52.5149C80.8273 52.4683 80.7091 52.447 80.5906 52.4527C80.4721 52.4584 80.3565 52.4909 80.2524 52.5478C80.1483 52.6047 80.0585 52.6844 79.9897 52.781C79.9209 52.8776 79.8749 52.9886 79.8552 53.1056ZM76.8516 53.17C76.4649 53.6748 76.7549 54.4337 77.095 54.892C77.2481 55.1202 77.459 55.3037 77.7062 55.4238C77.9533 55.544 78.2279 55.5964 78.502 55.5758C78.6018 55.5617 78.6955 55.5191 78.7717 55.453C78.8478 55.3869 78.9033 55.3002 78.9313 55.2033C78.9593 55.1065 78.9586 55.0035 78.9295 54.907C78.9003 54.8105 78.8438 54.7244 78.7669 54.6593C78.5516 54.4955 78.3795 54.2817 78.2657 54.0364C78.0974 53.6569 77.9864 53.1664 77.5497 53.0017C77.4304 52.9527 77.2987 52.9426 77.1734 52.9728C77.048 53.003 76.9354 53.072 76.8516 53.17ZM84.7813 61.1319C84.2765 62.1522 85.8123 63.3121 86.7431 63.1117C87.0546 63.0436 87.3553 62.6355 87.0796 62.342C86.8577 62.1057 86.5928 61.9195 86.3851 61.6689C86.1309 61.3646 85.9913 60.9744 85.5939 60.8205C85.4444 60.7579 85.2765 60.7553 85.1252 60.8133C84.9739 60.8714 84.8507 60.9854 84.7813 61.1319ZM70.361 48.6198C70.273 48.4522 70.1511 48.3047 70.003 48.1866C70.2035 48.6998 70.4147 49.2141 70.6367 49.7296C70.6486 49.3414 70.5532 48.9574 70.361 48.6198ZM72.3551 47.5458C72.285 46.6615 71.9394 45.8214 71.367 45.1436C70.9374 44.5887 70.1928 43.7116 69.4052 43.9014C69.3215 43.9275 69.2484 43.98 69.1968 44.0509C69.1452 44.1218 69.1179 44.2075 69.1188 44.2952C69.0687 44.9002 69.7632 45.5482 70.0639 46.0315C70.4219 46.6401 70.7047 47.3131 71.0914 47.9181C71.1722 48.0425 71.2911 48.1374 71.4303 48.1887C71.5695 48.2399 71.7215 48.2448 71.8637 48.2025C72.0059 48.1602 72.1306 48.073 72.2191 47.954C72.3077 47.835 72.3554 47.6906 72.3551 47.5422V47.5458ZM72.1224 51.3943C72.2623 51.3871 72.3962 51.3352 72.5044 51.2463C72.6127 51.1574 72.6896 51.0361 72.7238 50.9003C72.7795 50.6223 72.761 50.3347 72.6701 50.0661C72.6166 49.8104 72.4926 49.5748 72.3121 49.3859C72.2475 49.3261 72.1685 49.2842 72.0828 49.2641C71.997 49.244 71.9076 49.2466 71.8231 49.2715C71.7387 49.2964 71.6621 49.3428 71.601 49.4061C71.5399 49.4695 71.4963 49.5477 71.4744 49.633C71.4458 49.842 71.4458 50.054 71.4744 50.263C71.4744 50.3525 71.4744 50.442 71.4744 50.5351C71.4726 50.67 71.487 50.8046 71.5174 50.9361C71.5559 51.0669 71.6356 51.1817 71.7446 51.2637C71.8536 51.3456 71.9861 51.3901 72.1224 51.3907V51.3943Z" fill="#030402"/>
<path d="M88.9016 62.2952C88.5937 61.5792 87.8276 58.4002 87.6593 57.609C87.491 56.8178 86.8681 53.6173 86.6855 52.8047C86.6855 52.7581 86.7357 52.7331 86.7464 52.776C86.9397 53.5779 87.8025 56.7355 87.9922 57.5231C88.182 58.3107 88.8944 61.4862 88.9445 62.2845C88.9452 62.2873 88.9454 62.2903 88.9449 62.2931C88.9445 62.296 88.9435 62.2988 88.942 62.3013C88.939 62.3063 88.9341 62.3099 88.9284 62.3114C88.9227 62.3128 88.9167 62.3119 88.9117 62.3089C88.9066 62.3058 88.903 62.3009 88.9016 62.2952Z" fill="#4E4E4E"/>
<path opacity="0.1" d="M82.6971 63.9838C80.8176 63.9838 79.1672 63.8048 78.4011 63.3144C76.7937 62.2762 70.6898 51.5004 68.5883 44.122C68.0585 42.2747 68.3771 40.9573 69.2148 40.5742L82.6971 63.9838Z" fill="black"/>
<path d="M52.404 66.485C52.4506 66.553 74.7898 69.417 75.0296 69.2094C75.1559 68.5875 75.2456 67.9587 75.2981 67.3263C75.2981 67.3263 73.2504 43.0038 72.1907 41.5753C71.2635 40.3295 68.4496 39.4273 66.5343 40.24C62.514 41.9441 52.8873 63.6747 52.9912 64.584C52.984 64.5733 52.3468 66.3991 52.404 66.485Z" fill="#262262"/>
<path d="M52.404 66.485C52.4506 66.553 74.7898 69.417 75.0296 69.2094C75.1559 68.5875 75.2456 67.9587 75.2981 67.3263C75.2981 67.3263 73.2504 43.0038 72.1907 41.5753C71.2635 40.3295 68.4496 39.4273 66.5343 40.24C62.514 41.9441 52.8873 63.6747 52.9912 64.584C52.984 64.5733 52.3468 66.3991 52.404 66.485Z" fill="black" fill-opacity="0.2"/>
<path opacity="0.1" d="M60.4583 63.5269C60.8028 63.6942 61.1624 63.8285 61.5323 63.9279C62.2769 64.225 62.3449 65.4673 61.5323 65.7179C61.1003 65.8549 60.6422 65.8891 60.1946 65.8176C59.7471 65.7461 59.3225 65.571 58.9547 65.3062C58.2387 64.805 57.7768 63.8742 58.1635 63.0436C58.2344 62.8856 58.3449 62.7484 58.4841 62.6454C58.6234 62.5424 58.7869 62.477 58.9587 62.4554C59.1306 62.4338 59.3052 62.4568 59.4656 62.5222C59.626 62.5876 59.7669 62.6932 59.8747 62.8288C60.0752 63.0615 60.1969 63.3694 60.4583 63.5269ZM59.2339 59.8288C58.6217 61.0925 60.3938 62.7429 61.6218 62.2954C61.7246 62.2543 61.8165 62.1898 61.8903 62.1072C61.964 62.0245 62.0176 61.9258 62.0467 61.8189C62.0758 61.7121 62.0798 61.5999 62.0582 61.4912C62.0367 61.3826 61.9902 61.2804 61.9225 61.1927C61.679 60.867 61.4284 60.7631 61.2065 60.4767C61.1299 60.3778 61.0683 60.268 61.0239 60.151C60.9181 59.901 60.7635 59.6747 60.5692 59.4851C60.1432 59.0734 59.4594 59.3634 59.2339 59.8288ZM57.1647 58.4827C56.4952 58.7333 56.3234 59.6354 56.3735 60.2727C56.3838 60.5823 56.476 60.8835 56.6408 61.1458C56.8056 61.4081 57.037 61.6219 57.3114 61.7655C57.415 61.8118 57.5298 61.8271 57.6418 61.8095C57.7539 61.792 57.8585 61.7423 57.9429 61.6666C58.0274 61.5908 58.0881 61.4923 58.1177 61.3827C58.1473 61.2732 58.1445 61.1575 58.1098 61.0495C57.9961 60.7633 57.9567 60.453 57.9952 60.1474C58.0561 59.6891 58.2387 59.1521 57.9344 58.7404C57.8497 58.6218 57.7296 58.5329 57.5913 58.4866C57.4531 58.4403 57.3037 58.4389 57.1647 58.4827ZM64.5037 62.7429C64.3342 62.7284 64.1656 62.7793 64.0325 62.8851C63.8993 62.9909 63.8117 63.1437 63.7877 63.3121C63.7693 63.493 63.8147 63.6746 63.9161 63.8256C64.0174 63.9766 64.1682 64.0875 64.3426 64.1391C64.5867 64.2197 64.8502 64.2197 65.0944 64.1391C65.2193 64.0897 65.3223 63.9969 65.3843 63.8777C65.4562 63.7625 65.4854 63.6256 65.4667 63.4911C65.4469 63.3656 65.3893 63.249 65.3017 63.157C65.2141 63.0649 65.1006 63.0016 64.9762 62.9756C64.9537 62.9459 64.9272 62.9194 64.8975 62.8968C64.7838 62.8085 64.647 62.7551 64.5037 62.7429ZM59.0155 54.1043C58.4141 54.7201 58.6575 56.1199 59.3449 56.5924C59.4334 56.6597 59.5379 56.7027 59.6482 56.717C59.7584 56.7314 59.8705 56.7167 59.9733 56.6743C60.076 56.632 60.166 56.5635 60.2341 56.4757C60.3022 56.3878 60.3462 56.2837 60.3616 56.1736C60.3722 56.0318 60.3722 55.8894 60.3616 55.7476C60.3616 55.5936 60.3401 55.497 60.3616 55.3896C60.4151 55.0835 60.426 54.7714 60.3938 54.4623C60.366 54.3158 60.2971 54.1801 60.1952 54.0711C60.0932 53.9622 59.9624 53.8844 59.818 53.8469C59.6736 53.8094 59.5215 53.8137 59.3794 53.8592C59.2374 53.9048 59.1112 53.9898 59.0155 54.1043ZM55.1312 63.0114C54.3042 63.9923 55.6682 65.6749 56.7386 65.7071C57.0966 65.7071 57.537 65.3491 57.315 64.9553C57.136 64.6403 56.8962 64.361 56.7386 64.0353C56.5453 63.6343 56.4988 63.1653 56.105 62.8932C55.9581 62.7853 55.7756 62.7374 55.5947 62.7594C55.4138 62.7813 55.248 62.8715 55.1312 63.0114ZM74.8821 62.6999C74.7473 62.7201 74.6216 62.7799 74.5209 62.8717C74.4202 62.9635 74.349 63.0831 74.3164 63.2154C74.2019 63.6128 74.1876 63.9672 73.8904 64.2894C73.5688 64.5424 73.2802 64.8347 73.0312 65.1594C72.9897 65.2405 72.9699 65.3309 72.9738 65.422C72.9777 65.513 73.0052 65.6014 73.0535 65.6787C73.1019 65.7559 73.1695 65.8192 73.2496 65.8625C73.3298 65.9058 73.4198 65.9275 73.5109 65.9255C74.1361 65.8487 74.7084 65.5363 75.1112 65.052C75.0396 64.3718 74.968 63.5734 74.8857 62.6856L74.8821 62.6999ZM73.0921 59.7464C72.8916 60.2333 72.9274 60.7846 72.7591 61.293C72.6115 61.759 72.4357 62.2157 72.2329 62.6605C72.0825 62.9827 72.3832 63.4911 72.7735 63.3193C73.4081 63.0756 73.9272 62.6012 74.2269 61.9911C74.499 61.429 74.7997 60.4839 74.5384 59.886C74.2771 59.2882 73.3892 59.0268 73.0849 59.7321L73.0921 59.7464ZM71.0515 64.626C70.754 65.0103 70.3733 65.3224 69.9381 65.5389C69.8344 65.5711 69.7387 65.6249 69.6574 65.6969C69.5761 65.7689 69.511 65.8573 69.4665 65.9564C69.4219 66.0554 69.399 66.1628 69.3991 66.2714C69.3992 66.3799 69.4224 66.4873 69.4671 66.5862C69.5119 66.6852 69.5771 66.7735 69.6586 66.8453C69.7401 66.9171 69.8359 66.9707 69.9396 67.0027C70.0434 67.0347 70.1528 67.0442 70.2605 67.0307C70.3683 67.0172 70.4719 66.9809 70.5646 66.9243C70.935 66.7655 71.2661 66.5274 71.5346 66.2268C71.803 65.9262 72.0023 65.5704 72.1183 65.1844C72.2866 64.5651 71.4489 64.1606 71.0443 64.6116L71.0515 64.626ZM67.7794 47.084C67.9794 47.1263 68.188 47.0895 68.3615 46.9814C68.5351 46.8733 68.66 46.7022 68.7102 46.504C68.9106 45.7343 68.2233 44.9431 67.6791 44.4634C67.135 43.9837 66.3688 43.5469 65.6063 43.7939C65.5048 43.8268 65.4134 43.8851 65.3407 43.9633C65.268 44.0414 65.2165 44.1368 65.191 44.2405C65.1656 44.3441 65.167 44.4525 65.1952 44.5554C65.2234 44.6584 65.2774 44.7524 65.3521 44.8286C65.6851 45.2438 66.1469 45.5446 66.5013 45.9527C66.8557 46.3608 67.1493 46.9658 67.7722 47.0696L67.7794 47.084ZM70.5252 50.1234C70.8259 49.6902 70.5932 49.0494 70.3784 48.6377C70.264 48.4106 70.0862 48.2215 69.8665 48.0935C69.7186 47.9989 69.5394 47.9665 69.3677 48.0034C69.1961 48.0403 69.046 48.1434 68.95 48.2904C68.8524 48.494 68.837 48.7274 68.9071 48.942C68.937 49.0543 68.9777 49.1634 69.0288 49.2678V49.3V49.3286C69.0928 49.6705 69.2376 49.9921 69.4512 50.2666C69.5251 50.341 69.6153 50.3974 69.7146 50.4312C69.8139 50.465 69.9198 50.4754 70.0238 50.4615C70.1278 50.4476 70.2271 50.4099 70.3141 50.3513C70.4011 50.2926 70.4734 50.2146 70.5252 50.1234ZM72.3725 47.5601C72.3024 46.6758 71.9568 45.8356 71.3844 45.1579C70.9548 44.603 70.2102 43.7259 69.4226 43.9157C69.3389 43.9418 69.2658 43.9942 69.2142 44.0652C69.1626 44.1361 69.1353 44.2218 69.1362 44.3095C69.0861 44.9145 69.7806 45.5625 70.0813 46.0458C70.4393 46.6544 70.7221 47.3274 71.1088 47.9324C71.193 48.05 71.3123 48.1379 71.4494 48.1837C71.5866 48.2296 71.7347 48.231 71.8728 48.1878C72.0108 48.1445 72.1317 48.0589 72.2182 47.943C72.3047 47.8271 72.3524 47.6868 72.3546 47.5422L72.3725 47.5601ZM69.6696 53.6891C69.8005 53.7177 69.9361 53.7177 70.067 53.6891C70.2654 53.628 70.4331 53.4936 70.536 53.3132C70.6321 53.1211 70.6801 52.9085 70.6756 52.6938C70.6691 52.4904 70.6138 52.2915 70.5145 52.1139L70.3963 51.9671L70.2388 51.8525C70.1403 51.8017 70.0316 51.7737 69.9207 51.7707C69.8099 51.7677 69.6998 51.7898 69.5987 51.8352C69.4975 51.8806 69.4079 51.9482 69.3365 52.033C69.2651 52.1179 69.2138 52.2177 69.1863 52.3251C69.1267 52.5336 69.0848 52.7468 69.061 52.9623L69.0932 53.1592C69.1183 53.258 69.1675 53.349 69.2364 53.4241C69.3446 53.5491 69.4902 53.6358 69.6517 53.6712L69.6696 53.6891ZM72.1398 51.4086C72.2797 51.4014 72.4136 51.3495 72.5218 51.2606C72.6301 51.1717 72.707 51.0504 72.7412 50.9146C72.7969 50.6366 72.7783 50.3489 72.6875 50.0804C72.634 49.8247 72.51 49.5891 72.3295 49.4002C72.2649 49.3404 72.1859 49.2984 72.1001 49.2784C72.0144 49.2583 71.9249 49.2609 71.8405 49.2858C71.7561 49.3107 71.6795 49.3571 71.6184 49.4204C71.5573 49.4838 71.5137 49.562 71.4918 49.6472C71.4632 49.8563 71.4632 50.0683 71.4918 50.2773C71.4918 50.3668 71.4918 50.4563 71.4918 50.5494C71.49 50.6843 71.5044 50.8189 71.5348 50.9504C71.5749 51.0756 71.6529 51.1853 71.7581 51.2642C71.8633 51.3431 71.9904 51.3873 72.1219 51.3907L72.1398 51.4086Z" fill="#030402"/>
<path d="M70.8831 45.3873C69.5191 45.262 67.772 42.3479 67.4391 40.497C67.4176 40.3681 67.9618 39.2905 68.5596 37.9516C68.9176 37.139 69.3043 36.2225 69.5907 35.3633L74.5454 38.4815C73.8769 39.4541 73.3298 40.5049 72.9165 41.6104C72.8795 41.7271 72.8531 41.8469 72.8377 41.9684C72.839 41.9886 72.839 42.009 72.8377 42.0292C72.7124 42.7452 72.2041 45.509 70.8831 45.3873Z" fill="#D3766A"/>
<path d="M72.8378 41.9792C72.8389 41.9994 72.8389 42.0198 72.8378 42.04C72.6469 42.0027 72.4591 41.9512 72.2758 41.8861C69.1755 40.7691 69.7232 36.7022 69.9416 35.5781L71.1767 36.3586L74.5598 38.5066C73.8916 39.4788 73.3457 40.5297 72.9345 41.6355C72.8919 41.7469 72.8595 41.8619 72.8378 41.9792Z" fill="#4E4E4E"/>
<path d="M70.1098 29.6264C69.086 31.4701 68.907 37.3914 70.0418 38.963C71.6815 41.2399 74.9751 42.1277 77.0622 40.037C79.0849 37.9893 79.178 30.2672 77.8606 28.7779C75.913 26.5655 71.6206 26.902 70.1098 29.6264Z" fill="#D3766A"/>
<path d="M74.8648 34.4141C74.8648 34.4141 74.8326 34.4141 74.8326 34.4499C74.8326 34.858 74.761 35.3234 74.3887 35.4451V35.4702C74.8433 35.42 74.9293 34.8007 74.8648 34.4141Z" fill="#4E4E4E"/>
<path d="M74.5171 33.9755C73.862 33.9039 73.7653 35.2142 74.3704 35.2822C74.9754 35.3502 75.0649 34.0363 74.5171 33.9755Z" fill="#4E4E4E"/>
<path d="M77.2128 34.5508C77.2128 34.5508 77.2414 34.5723 77.2414 34.5902C77.1949 34.9947 77.2128 35.4673 77.5672 35.6284C77.5672 35.6284 77.5672 35.657 77.5672 35.6534C77.1197 35.5532 77.1054 34.9267 77.2128 34.5508Z" fill="#4E4E4E"/>
<path d="M77.6102 34.1602C78.2654 34.1602 78.2117 35.474 77.6102 35.474C77.0088 35.474 77.0589 34.1566 77.6102 34.1602Z" fill="#4E4E4E"/>
<path d="M75.0472 33.712C74.8646 33.7514 74.6892 33.7549 74.5102 33.7764C74.3248 33.8249 74.1285 33.8111 73.9517 33.737C73.9003 33.7031 73.8615 33.6531 73.8414 33.5948C73.8213 33.5365 73.8211 33.4733 73.8408 33.4148C73.8994 33.3081 73.9853 33.2187 74.0897 33.1558C74.1941 33.093 74.3132 33.0588 74.435 33.0568C74.6823 33.0093 74.9384 33.058 75.151 33.1929C75.1953 33.2261 75.2292 33.2712 75.2489 33.3229C75.2686 33.3746 75.2734 33.4308 75.2625 33.4851C75.2516 33.5394 75.2257 33.5895 75.1876 33.6296C75.1495 33.6697 75.1008 33.6983 75.0472 33.712Z" fill="#4E4E4E"/>
<path d="M78.197 32.9391C78.0232 32.8903 77.8523 32.8317 77.6851 32.7636C77.4968 32.7281 77.3255 32.6312 77.1982 32.488C77.1664 32.4355 77.1529 32.3739 77.1601 32.313C77.1672 32.252 77.1945 32.1952 77.2376 32.1515C77.3354 32.0767 77.4516 32.0299 77.5739 32.0161C77.6962 32.0022 77.82 32.0218 77.9321 32.0727C78.1739 32.1389 78.3829 32.2918 78.5192 32.5023C78.5475 32.5522 78.5608 32.6093 78.5573 32.6666C78.5539 32.7239 78.5339 32.779 78.4998 32.8252C78.4657 32.8714 78.419 32.9068 78.3653 32.927C78.3115 32.9472 78.2531 32.9514 78.197 32.9391Z" fill="#4E4E4E"/>
<path d="M74.5672 37.6412C75.0944 37.515 75.6439 37.515 76.171 37.6412C76.2176 37.6412 76.2641 37.5481 76.2749 37.5052L76.3035 36.646C76.4145 36.7104 76.973 37.004 76.973 36.8465C77.0312 35.45 76.9461 34.0512 76.7188 32.6722C76.7163 32.6642 76.7113 32.6572 76.7045 32.6522C76.6978 32.6472 76.6896 32.6445 76.6812 32.6445C76.6728 32.6445 76.6646 32.6472 76.6579 32.6522C76.6511 32.6572 76.6461 32.6642 76.6436 32.6722C76.5863 33.9646 76.751 35.2534 76.7116 36.5529C76.5141 36.4434 76.3019 36.3626 76.0815 36.313C76.035 36.313 76.0815 37.2259 76.0815 37.362C75.5888 37.1922 75.0492 37.2218 74.5779 37.4443C74.3918 37.5625 74.3166 37.72 74.5672 37.6412Z" fill="#4E4E4E"/>
<path d="M73.5078 38.4951C73.5973 38.5953 73.6868 38.7314 73.83 38.7528C73.9805 38.76 74.1308 38.7344 74.2703 38.6777C74.2703 38.6777 74.2954 38.6777 74.2703 38.6991C74.2087 38.7751 74.1273 38.8327 74.0351 38.8655C73.9429 38.8984 73.8435 38.9052 73.7477 38.8853C73.6694 38.8603 73.6001 38.8132 73.548 38.7497C73.4959 38.6861 73.4633 38.6089 73.4541 38.5273C73.4613 38.4879 73.4935 38.4808 73.5078 38.4951Z" fill="#4E4E4E"/>
<path opacity="0.2" d="M71.8396 27.7461C71.7859 28.6662 71.5676 31.5194 71.1236 32.0994C70.6797 32.6793 69.7418 34.029 69.2656 34.2474C69.3301 32.3464 69.6236 30.5385 70.1141 29.5934C70.5162 28.8361 71.1115 28.1988 71.8396 27.7461Z" fill="#4E4E4E"/>
<path d="M76.9409 30.5364C76.6906 30.7912 76.3792 30.9776 76.0364 31.0779C75.6936 31.1782 75.3308 31.1889 74.9826 31.1092C74.6263 31.0299 74.2965 30.8601 74.0249 30.6162C73.7534 30.3722 73.5494 30.0624 73.4325 29.7166C73.4325 29.6951 73.3931 29.7166 73.4003 29.7166C73.4913 30.0899 73.6829 30.4312 73.9543 30.7032C74.2257 30.9753 74.5665 31.1677 74.9397 31.2596C75.3122 31.3307 75.6969 31.3019 76.0547 31.1761C76.4125 31.0503 76.7306 30.8321 76.9767 30.5436C76.9982 30.5471 76.9695 30.5149 76.9409 30.5364Z" fill="#4E4E4E"/>
<path d="M75.1441 25.2302C74.5939 25.1929 74.0432 25.2948 73.5427 25.5262C73.0422 25.7577 72.608 26.1114 72.2801 26.5547C72.0007 27.0059 71.8821 27.5384 71.9436 28.0655H71.9901C71.9969 27.603 72.1286 27.1509 72.3712 26.757C72.6138 26.3631 72.9584 26.0422 73.3684 25.828C73.8166 25.5771 74.3167 25.4333 74.8297 25.4078C75.3427 25.3824 75.8547 25.4759 76.3255 25.6812C76.7886 25.8722 77.1691 26.221 77.3995 26.6657C77.421 26.7123 77.5141 26.6908 77.4962 26.6442C77.2026 25.8638 76.2539 25.2839 75.1441 25.2302Z" fill="#4E4E4E"/>
<path d="M81.9818 28.3501C81.8261 27.744 81.4608 27.2126 80.9507 26.85C80.2347 26.3381 79.397 26.3453 78.5593 26.3739C78.5343 26.3739 78.5378 26.4097 78.5593 26.4061C79.2716 26.3318 79.9901 26.4648 80.6286 26.7892C81.1482 27.101 81.544 27.5829 81.7491 28.1532C81.9442 28.7381 81.9216 29.3737 81.6855 29.9433C81.4494 30.5129 81.0156 30.9781 80.4639 31.2534C80.1428 31.4044 79.7941 31.488 79.4395 31.499C79.0849 31.5101 78.7317 31.4485 78.4018 31.3179C78.3767 31.3179 78.3553 31.3429 78.3803 31.3573C78.8267 31.5544 79.3194 31.6229 79.8026 31.5548C80.2858 31.4868 80.7404 31.285 81.115 30.9722C81.4896 30.6594 81.7693 30.2481 81.9224 29.7848C82.0756 29.3214 82.0962 28.8245 81.9818 28.3501Z" fill="#4E4E4E"/>
<path d="M69.7527 30.7905C69.7527 30.7905 68.7646 28.5387 69.8207 27.3573C70.4186 26.6914 72.2157 26.9205 72.2157 26.9205C72.7526 26.239 73.5381 25.7986 74.3995 25.6961C75.9353 25.4563 77.686 26.4945 77.686 26.4945C77.686 26.4945 79.1824 25.7785 80.4676 26.6484C82.2576 27.862 81.8101 30.701 79.8554 31.4743C78.4807 32.022 76.7695 30.7117 76.7695 30.7117C76.5976 30.7117 74.7432 31.6568 73.5224 29.9742C73.5224 29.9742 72.3625 30.8585 71.4353 30.1067C71.259 30.3796 71.0029 30.5917 70.7018 30.714C70.4008 30.8364 70.0694 30.863 69.7527 30.7905Z" fill="#4E4E4E"/>
<path d="M70.3363 34.5324C70.3363 34.5324 69.3983 32.431 68.4711 32.7424C67.5439 33.0539 67.9949 35.9107 68.9114 36.4692C69.0231 36.5469 69.1493 36.6013 69.2824 36.6294C69.4155 36.6574 69.5529 36.6584 69.6865 36.6324C69.82 36.6064 69.9469 36.5538 70.0598 36.4778C70.1726 36.4018 70.2691 36.3039 70.3434 36.19L70.3363 34.5324Z" fill="#D3766A"/>
<path d="M68.6211 33.5508V33.5758C69.2583 33.9875 69.4982 34.7 69.6235 35.4124C69.5965 35.3356 69.5533 35.2656 69.4966 35.2072C69.44 35.1488 69.3713 35.1034 69.2954 35.0741C69.2195 35.0449 69.1381 35.0324 69.0569 35.0377C68.9758 35.0429 68.8967 35.0657 68.8252 35.1045C68.8037 35.1045 68.8252 35.1439 68.8252 35.1439C68.9555 35.1288 69.0874 35.1553 69.2018 35.2196C69.3162 35.2839 69.4074 35.3827 69.4624 35.5019C69.5596 35.6955 69.634 35.8997 69.6844 36.1105C69.6844 36.1785 69.8204 36.1678 69.8132 36.1105C69.9958 35.1868 69.5483 33.8229 68.6211 33.5508Z" fill="#4E4E4E"/>
<path d="M119.957 38.7019L81.4141 50.5078L88.3634 73.1956L126.907 61.3897L119.957 38.7019Z" fill="#262262"/>
<path d="M119.957 38.7019L81.4141 50.5078L88.3634 73.1956L126.907 61.3897L119.957 38.7019Z" fill="black" fill-opacity="0.2"/>
<path opacity="0.2" d="M119.957 38.7019L81.4141 50.5078L88.3634 73.1956L126.907 61.3897L119.957 38.7019Z" fill="black"/>
<path opacity="0.2" d="M119.956 38.7005L107.003 42.668L113.952 65.3558L126.905 61.3883L119.956 38.7005Z" fill="black"/>
<path d="M119.335 39.8594C118.899 41.8689 118.474 43.8785 118.061 45.8881L116.84 51.9311L115.659 57.9992C115.272 60.0184 114.895 62.0411 114.527 64.0673C114.964 62.0601 115.389 60.0506 115.802 58.0386L117.023 51.9956L118.204 45.9418C118.591 43.9131 118.968 41.8857 119.335 39.8594Z" fill="#262262"/>
<path d="M119.335 39.8594C118.899 41.8689 118.474 43.8785 118.061 45.8881L116.84 51.9311L115.659 57.9992C115.272 60.0184 114.895 62.0411 114.527 64.0673C114.964 62.0601 115.389 60.0506 115.802 58.0386L117.023 51.9956L118.204 45.9418C118.591 43.9131 118.968 41.8857 119.335 39.8594Z" fill="black" fill-opacity="0.2"/>
<path d="M125.697 60.6286C124.265 59.1584 122.82 57.6942 121.362 56.236L116.994 51.8827L112.598 47.5616C111.128 46.1296 109.651 44.6976 108.166 43.2656C109.598 44.7382 111.043 46.2024 112.501 47.6583L116.869 52.0116L121.265 56.3326C122.738 57.7789 124.215 59.2109 125.697 60.6286Z" fill="#262262"/>
<path d="M125.697 60.6286C124.265 59.1584 122.82 57.6942 121.362 56.236L116.994 51.8827L112.598 47.5616C111.128 46.1296 109.651 44.6976 108.166 43.2656C109.598 44.7382 111.043 46.2024 112.501 47.6583L116.869 52.0116L121.265 56.3326C122.738 57.7789 124.215 59.2109 125.697 60.6286Z" fill="black" fill-opacity="0.2"/>
<path d="M88.8171 53.4322L89.0293 53.3672L88.1161 50.3857L87.9038 50.4507L88.8171 53.4322Z" fill="#4E4E4E"/>
<path d="M88.3132 53.5845L88.5254 53.5195L87.6122 50.5381L87.3999 50.6031L88.3132 53.5845Z" fill="#4E4E4E"/>
<path d="M87.8044 53.7447L88.0166 53.6797L87.1034 50.6982L86.8911 50.7632L87.8044 53.7447Z" fill="#4E4E4E"/>
<path d="M87.3005 53.8931L87.5127 53.8281L86.6 50.8465L86.3877 50.9115L87.3005 53.8931Z" fill="#4E4E4E"/>
<path d="M86.7927 54.0494L87.0049 53.9844L86.0917 51.0029L85.8794 51.0679L86.7927 54.0494Z" fill="#4E4E4E"/>
<path d="M86.2868 54.2017L86.499 54.1367L85.5858 51.1553L85.3736 51.2203L86.2868 54.2017Z" fill="#4E4E4E"/>
<path d="M85.7761 54.3658L85.9883 54.3008L85.0751 51.3193L84.8628 51.3843L85.7761 54.3658Z" fill="#4E4E4E"/>
<path d="M85.2702 54.5182L85.4824 54.4531L84.5687 51.4718L84.3565 51.5369L85.2702 54.5182Z" fill="#4E4E4E"/>
<path d="M84.7595 54.6783L84.9717 54.6133L84.0585 51.6318L83.8462 51.6968L84.7595 54.6783Z" fill="#4E4E4E"/>
<path d="M90.2625 49.9755L89.3818 49.9969L91.29 49.4062L90.5453 49.886L90.8819 50.9814C91.4869 50.8776 91.895 51.3824 92.2029 52.3848L90.2947 52.9862C89.9869 51.9874 90.0406 51.3395 90.599 51.0853L90.2625 49.9755Z" fill="#4E4E4E"/>
<path d="M92.1807 50.7392L92.6783 50.5852L92.2308 49.1246L93.5053 48.7344L93.9528 50.195L94.454 50.0411L93.7809 51.9098L92.1807 50.7392Z" fill="#4E4E4E"/>
<path opacity="0.1" d="M81.416 50.5085L81.9852 52.3701L108.628 47.9739L107.002 42.6719L81.416 50.5085Z" fill="black"/>
<path d="M131.901 63.9607L118.945 67.9274L113.951 65.3569L126.907 61.3867L131.901 63.9607Z" fill="#262262"/>
<path d="M131.901 63.9607L118.945 67.9274L113.951 65.3569L126.907 61.3867L131.901 63.9607Z" fill="black" fill-opacity="0.2"/>
<path opacity="0.2" d="M131.901 63.9607L118.945 67.9274L113.951 65.3569L126.907 61.3867L131.901 63.9607Z" fill="black"/>
<path d="M85.665 78.1229L98.6211 74.1526L101.317 69.2266L88.3608 73.1932L85.665 78.1229Z" fill="#262262"/>
<path d="M85.665 78.1229L98.6211 74.1526L101.317 69.2266L88.3608 73.1932L85.665 78.1229Z" fill="black" fill-opacity="0.2"/>
<path opacity="0.1" d="M85.665 78.1229L98.6211 74.1526L101.317 69.2266L88.3608 73.1932L85.665 78.1229Z" fill="black"/>
<path d="M64.3427 47.0061C66.2365 53.3391 71.5027 64.1901 73.4574 65.5147C75.1794 66.6997 83.4456 65.6221 87.0614 64.8381C88.4146 64.5481 85.6294 54.2162 84.1974 54.5563C82.4647 54.968 77.3059 55.9883 76.9407 55.7055C76.5756 55.4227 71.5707 48.9035 67.9907 45.08C64.7401 41.6003 63.6267 44.6111 64.3427 47.0061Z" fill="#D3766A"/>
<path d="M83.4531 55.3986C83.4531 55.3986 86.1918 52.3127 88.1322 51.1349C90.1804 49.9625 92.4827 49.3053 94.8411 49.2196C97.3865 49.1193 103.612 50.6301 103.487 52.4988C103.376 54.1922 97.0929 52.3234 97.0929 52.3234C97.0929 52.3234 103.813 53.1719 103.304 55.1874C102.796 57.203 95.6251 54.6146 95.6251 54.6146C95.6251 54.6146 102.509 55.6385 101.672 57.6397C101.027 59.1469 94.4008 57.1707 94.4008 57.1707C94.4008 57.1707 100.315 58.0944 99.7171 59.6767C99.0583 61.4202 92.8256 59.981 92.8256 59.981C90.6382 63.7329 88.057 64.635 86.1489 65.0396C85.6727 65.1219 83.4531 55.3986 83.4531 55.3986Z" fill="#D3766A"/>
<path d="M94.7867 51.8789C95.5779 51.9505 96.3834 52.0185 97.1674 52.1581C97.9515 52.2978 98.7283 52.4696 99.498 52.6844C100.506 52.9436 101.482 53.3171 102.405 53.7978C100.704 53.0639 97.9049 52.5126 97.1209 52.3658C96.3369 52.219 95.56 52.0436 94.7796 51.904C94.7581 51.9111 94.7652 51.8789 94.7867 51.8789Z" fill="#4E4E4E"/>
<path d="M94.225 54.7035C95.231 54.8359 96.2405 54.9326 97.2429 55.1116C98.2453 55.2906 99.1725 55.5484 100.157 55.7954C100.232 55.8133 100.196 55.8491 100.121 55.8312C99.126 55.6235 98.1952 55.509 97.2 55.3157C96.2047 55.1223 95.2166 54.8861 94.2178 54.725C94.2035 54.725 94.2071 54.6999 94.225 54.7035Z" fill="#4E4E4E"/>
<path d="M93.3049 57.0392C94.8574 57.2078 96.3882 57.5365 97.873 58.0202C97.9482 58.0416 97.898 58.081 97.8193 58.0631C96.3085 57.7051 95.1235 57.4187 93.3013 57.0929C93.2727 57.0894 93.2727 57.0357 93.3049 57.0392Z" fill="#4E4E4E"/>
<path d="M86.2417 66.6738L83.836 54.3156L77.1306 55.3681C74.5673 52.2893 69.4479 46.1317 67.3572 44.2701C64.9049 42.0828 63.2259 43.6436 64.0672 46.8835C65.9932 54.2905 71.8358 65.231 73.4182 66.305C75.6879 67.8444 86.2417 66.6738 86.2417 66.6738Z" fill="#262262"/>
<path d="M86.2417 66.6738L83.836 54.3156L77.1306 55.3681C74.5673 52.2893 69.4479 46.1317 67.3572 44.2701C64.9049 42.0828 63.2259 43.6436 64.0672 46.8835C65.9932 54.2905 71.8358 65.231 73.4182 66.305C75.6879 67.8444 86.2417 66.6738 86.2417 66.6738Z" fill="black" fill-opacity="0.2"/>
<path opacity="0.1" d="M81.7022 56.0291C82.0329 56.101 82.3698 56.1405 82.7082 56.1472C83.4242 56.2439 83.7392 57.3 83.0877 57.7009C82.7455 57.9117 82.3587 58.0393 81.9583 58.0735C81.5579 58.1077 81.1551 58.0475 80.7821 57.8978C80.0661 57.6186 79.4611 56.9241 79.6151 56.1078C79.6417 55.9557 79.7073 55.813 79.8054 55.6937C79.9036 55.5744 80.0309 55.4825 80.1751 55.427C80.3192 55.3715 80.4753 55.3543 80.6281 55.377C80.7809 55.3997 80.9253 55.4615 81.0471 55.5565C81.2455 55.74 81.4655 55.8987 81.7022 56.0291ZM80.9862 54.7618C81.2108 54.87 81.4582 54.9227 81.7075 54.9152C81.9567 54.9077 82.2005 54.8403 82.4182 54.7188C82.4984 54.6652 82.5627 54.591 82.6044 54.504L80.9862 54.7618ZM77.5029 55.3059C77.7879 55.5141 78.1398 55.6097 78.4909 55.5744C78.612 55.5578 78.7235 55.4993 78.8059 55.409C78.8883 55.3188 78.9365 55.2025 78.942 55.0804L77.5029 55.3059ZM85.0925 60.8227C84.9508 60.8821 84.836 60.9917 84.7703 61.1306C84.4695 61.7356 84.8884 62.3872 85.4863 62.7774L85.0925 60.8227ZM74.3095 63.1998C74.195 63.5972 74.1806 63.9516 73.8835 64.2738C73.5635 64.5317 73.2773 64.8288 73.0314 65.1581C72.9899 65.2392 72.9701 65.3296 72.974 65.4207C72.9779 65.5117 73.0054 65.6001 73.0538 65.6774C73.1021 65.7546 73.1697 65.8179 73.2499 65.8612C73.33 65.9044 73.4201 65.9262 73.5112 65.9242C74.1349 65.8475 74.7071 65.5392 75.1142 65.0604C75.5213 64.5817 75.7337 63.9674 75.7093 63.3394C75.6892 63.1785 75.615 63.0292 75.4989 62.9159C75.3829 62.8026 75.2318 62.7321 75.0704 62.7159C74.9091 62.6996 74.747 62.7387 74.6107 62.8266C74.4744 62.9145 74.372 63.0461 74.3202 63.1998H74.3095ZM73.0744 59.7308C72.8739 60.2177 72.9097 60.769 72.7415 61.2774C72.5938 61.7434 72.4181 62.2001 72.2152 62.6449C72.0648 62.9671 72.3656 63.4755 72.7558 63.3036C73.3904 63.06 73.9096 62.5856 74.2093 61.9755C74.4813 61.4134 74.7821 60.4683 74.5207 59.8704C74.2594 59.2726 73.3894 59.0255 73.0851 59.7308H73.0744ZM67.7617 47.0683C67.9617 47.1107 68.1704 47.0739 68.3439 46.9658C68.5174 46.8577 68.6423 46.6866 68.6925 46.4884C68.893 45.7187 68.2056 44.9275 67.6614 44.4478C67.1173 43.9681 66.3512 43.5313 65.5886 43.7783C65.4871 43.8112 65.3957 43.8695 65.323 43.9476C65.2503 44.0258 65.1988 44.1212 65.1734 44.2248C65.1479 44.3285 65.1493 44.4369 65.1775 44.5398C65.2057 44.6427 65.2597 44.7367 65.3344 44.8129C65.6674 45.2282 66.1292 45.5289 66.4836 45.9371C66.8381 46.3452 67.1495 46.9645 67.7724 47.0683H67.7617ZM70.5254 50.1221C70.8262 49.6889 70.5935 49.0481 70.3787 48.6364C70.2643 48.4093 70.0864 48.2202 69.8667 48.0922C69.7189 47.9976 69.5396 47.9652 69.368 48.0021C69.1963 48.039 69.0462 48.1421 68.9503 48.2891C68.8526 48.4927 68.8372 48.7261 68.9073 48.9407C68.9372 49.053 68.978 49.1621 69.029 49.2665V49.2987V49.3273C69.093 49.6692 69.2378 49.9908 69.4514 50.2653C69.5254 50.3397 69.6155 50.3961 69.7149 50.4299C69.8142 50.4637 69.92 50.4741 70.024 50.4602C70.128 50.4463 70.2274 50.4086 70.3144 50.3499C70.4014 50.2913 70.4736 50.2133 70.5254 50.1221ZM69.6698 53.7021C69.8007 53.7307 69.9363 53.7307 70.0672 53.7021C70.2657 53.641 70.4334 53.5066 70.5362 53.3262C70.6324 53.1341 70.6803 52.9216 70.6758 52.7068C70.6693 52.5034 70.6141 52.3045 70.5147 52.1269L70.3966 51.9801L70.239 51.8655C70.1405 51.8147 70.0318 51.7868 69.921 51.7838C69.8101 51.7808 69.7001 51.8028 69.5989 51.8482C69.4978 51.8936 69.4082 51.9612 69.3368 52.046C69.2654 52.1309 69.214 52.2307 69.1865 52.3381C69.1269 52.5466 69.085 52.7598 69.0612 52.9753L69.0934 53.1722C69.1185 53.271 69.1677 53.3621 69.2366 53.4372C69.3469 53.5569 69.4923 53.6384 69.6519 53.6699L69.6698 53.7021ZM72.6734 50.0684L71.9574 49.2629C71.843 49.2492 71.7276 49.2782 71.6332 49.3442C71.5388 49.4103 71.472 49.5087 71.4455 49.6209C71.4169 49.8299 71.4169 50.0419 71.4455 50.251C71.4455 50.3405 71.4455 50.43 71.4455 50.523C71.4437 50.6579 71.4581 50.7926 71.4885 50.924C71.5276 51.0603 71.6113 51.1794 71.7262 51.2625C71.8411 51.3456 71.9805 51.3877 72.1221 51.3822C72.262 51.375 72.3959 51.3231 72.5042 51.2342C72.6124 51.1453 72.6893 51.024 72.7236 50.8882C72.7773 50.6151 72.7601 50.3329 72.6734 50.0684Z" fill="#030402"/>
<path d="M83.9293 65.5385C83.6393 64.8046 82.9591 61.6184 82.798 60.8201C82.6369 60.0217 82.1035 56.8141 81.9424 55.9942C81.9424 55.9513 81.9925 55.9226 82.0032 55.9692C82.1751 56.7747 82.9663 59.9501 83.1345 60.7449C83.3028 61.5397 83.9436 64.7259 83.9722 65.5278C83.9737 65.5335 83.9728 65.5395 83.9698 65.5445C83.9667 65.5496 83.9618 65.5532 83.9561 65.5546C83.9504 65.5561 83.9444 65.5552 83.9394 65.5521C83.9343 65.5491 83.9307 65.5442 83.9293 65.5385Z" fill="#4E4E4E"/>
<path d="M81.717 67.0181C80.6179 67.0825 79.5189 67.1076 78.4198 67.1004C77.3167 67.1053 76.2144 67.0419 75.1191 66.9107C74.5578 66.8552 74.0091 66.7101 73.4937 66.4811C73.0304 66.1539 72.6282 65.748 72.3052 65.2818C71.6562 64.386 71.069 63.447 70.5474 62.4715C69.4734 60.5419 68.5498 58.5335 67.6476 56.5359C66.7454 54.5382 65.9256 52.4833 65.1738 50.4141C66.0867 52.4153 66.9889 54.4201 67.9268 56.407C68.8648 58.3939 69.8135 60.3736 70.8374 62.3104C71.3484 63.2765 71.9125 64.2135 72.5271 65.1171C72.8141 65.567 73.1776 65.9632 73.6011 66.2878C74.0893 66.5129 74.6101 66.6591 75.1441 66.721C77.3245 66.9851 79.5217 67.0845 81.717 67.0181Z" fill="#4E4E4E"/>
<path d="M65.8713 52.1625C65.7242 52.014 65.5912 51.8522 65.4739 51.6793C65.3524 51.5079 65.2593 51.3181 65.1982 51.1172C65.2522 51.2061 65.3107 51.2922 65.3737 51.3749L65.5491 51.6291C65.6669 51.8004 65.7745 51.9785 65.8713 52.1625Z" fill="#4E4E4E"/>
<path d="M71.5244 48.8438C72.4302 49.7531 73.2428 50.7519 74.0841 51.7078C74.9254 52.6636 75.7309 53.6732 76.5901 54.6255L76.9087 54.9835C76.966 55.0372 77.0197 55.098 77.0734 55.1481C77.1271 55.1983 77.1271 55.1947 77.1522 55.2162C77.1522 55.2162 77.1772 55.2162 77.1916 55.2162C77.4636 55.2162 77.8073 55.1553 78.1152 55.1159L80.0198 54.8331C81.2871 54.6469 82.558 54.4536 83.8289 54.2818L83.879 54.5968L83.8038 54.2854H83.8217C82.5651 54.5539 81.3157 54.7937 80.0412 55.0264C79.4076 55.141 78.7739 55.2412 78.1367 55.3379C77.8109 55.3944 77.4822 55.4327 77.1522 55.4524C77.126 55.4558 77.0996 55.4558 77.0734 55.4524C77.0384 55.4419 77.0056 55.4249 76.9768 55.4023C76.9406 55.3743 76.906 55.3444 76.8729 55.3128L76.6975 55.141C76.583 55.0228 76.4756 54.9047 76.3682 54.783C75.5269 53.8056 74.7106 52.8176 73.9087 51.8152L72.7094 50.308C72.3156 49.839 71.9576 49.3235 71.5244 48.8438Z" fill="#4E4E4E"/>
<path d="M71.9932 48.9531C72.128 49.1188 72.2478 49.2961 72.3512 49.483C72.4521 49.6676 72.5234 49.8669 72.5624 50.0737C72.5194 49.977 72.4657 49.8911 72.4156 49.798L72.2688 49.5223C72.1668 49.3377 72.0747 49.1477 71.9932 48.9531Z" fill="#4E4E4E"/>
<path d="M100.598 21.7539C100.597 23.2272 100.188 24.6714 99.4148 25.9256C98.6416 27.1797 97.5352 28.1944 96.219 28.8564C94.9028 29.5184 93.4286 29.8017 91.9608 29.6746C90.493 29.5476 89.0893 29.0153 87.9064 28.137L84.0078 29.1322L85.6296 25.5057C85.0588 24.4394 84.7387 23.257 84.6935 22.0483C84.6484 20.8397 84.8795 19.6367 85.3692 18.5308C85.8589 17.4249 86.5944 16.4452 87.5196 15.6663C88.4448 14.8874 89.5355 14.3296 90.7087 14.0356C91.8819 13.7415 93.1066 13.7188 94.2899 13.9693C95.4732 14.2197 96.5837 14.7367 97.5372 15.4808C98.4906 16.225 99.2618 17.1767 99.7921 18.2638C100.322 19.3508 100.598 20.5444 100.598 21.7539Z" fill="white"/>
<path d="M100.598 21.7516C100.597 23.2268 100.191 24.6734 99.4236 25.9331C99.2369 26.2506 99.0312 26.5567 98.8078 26.8495C98.5703 27.13 98.3156 27.3954 98.0453 27.6443C97.5111 28.1478 96.9085 28.5733 96.2553 28.908C95.6 29.2425 94.901 29.4835 94.1789 29.624C93.8163 29.6962 93.449 29.7417 93.0798 29.7601C92.7117 29.7905 92.3417 29.7905 91.9736 29.7601C90.4845 29.6445 89.0568 29.1178 87.8494 28.2386L87.9568 28.2601L84.0689 29.2839L83.7539 29.3663L83.8864 29.0656L85.4938 25.4319V25.5822C84.9091 24.4952 84.5824 23.2882 84.5389 22.0547C84.4954 20.8212 84.7364 19.5942 85.2432 18.4688C85.7506 17.3465 86.5058 16.3538 87.452 15.5654C88.3972 14.7886 89.5059 14.2359 90.6951 13.9489C91.8843 13.6618 93.1231 13.6478 94.3185 13.9078C95.5031 14.1773 96.6125 14.7082 97.5655 15.4616C98.5135 16.2127 99.2789 17.1689 99.8041 18.2584C100.329 19.3478 100.601 20.5422 100.598 21.7516ZM100.598 21.7516C100.597 19.9329 99.9672 18.1705 98.8147 16.7636C97.6623 15.3567 96.0585 14.3919 94.2755 14.0331C93.1025 13.7996 91.8916 13.8364 90.7349 14.1405C89.5819 14.4383 88.5127 14.9968 87.6096 15.773C86.7147 16.5576 86.0013 17.5276 85.5188 18.6155C85.0431 19.7005 84.8202 20.8794 84.8673 22.0631C84.9225 23.235 85.2354 24.3804 85.7838 25.4175L85.8231 25.4927L85.7873 25.5679L84.1513 29.1909L83.9687 28.9761L87.8745 28.0095H87.9353L87.9819 28.0453C89.1396 28.9245 90.5193 29.4638 91.9664 29.6026C92.3239 29.6289 92.6829 29.6289 93.0404 29.6026C94.1345 29.565 95.2076 29.2927 96.1872 28.8042C96.8407 28.4861 97.4438 28.0736 97.9772 27.5799C98.2475 27.3347 98.5022 27.0728 98.7398 26.7958C98.9678 26.511 99.1794 26.2134 99.3734 25.9044C100.155 24.6587 100.579 23.222 100.598 21.7516Z" fill="#4E4E4E"/>
<path d="M93.1981 22.615V23.4921C93.2006 23.5797 93.1851 23.6669 93.1527 23.7484C93.1203 23.8299 93.0716 23.9039 93.0096 23.9659C92.9476 24.0279 92.8736 24.0766 92.7921 24.109C92.7107 24.1414 92.6234 24.1568 92.5358 24.1544C92.449 24.1544 92.363 24.1372 92.2829 24.1039C92.2027 24.0705 92.13 24.0217 92.0687 23.9602C92.0075 23.8986 91.9591 23.8256 91.9262 23.7452C91.8933 23.6649 91.8766 23.5789 91.8771 23.4921V22.0923C91.8771 22.0923 91.8771 22.0923 91.8771 22.0636C91.8771 22.035 91.8771 22.0636 91.8771 22.0386C91.8816 21.865 91.9523 21.6996 92.0748 21.5765C92.1973 21.4533 92.3622 21.3817 92.5358 21.3763C92.7401 21.3862 92.9444 21.3546 93.1361 21.2832C93.3279 21.2119 93.5031 21.1024 93.6513 20.9613C93.7994 20.8202 93.9173 20.6504 93.9979 20.4624C94.0785 20.2743 94.1201 20.0719 94.1201 19.8673C94.1201 19.6627 94.0785 19.4603 93.9979 19.2722C93.9173 19.0842 93.7994 18.9145 93.6513 18.7734C93.5031 18.6323 93.3279 18.5227 93.1361 18.4514C92.9444 18.38 92.7401 18.3484 92.5358 18.3583C92.2743 18.3575 92.0172 18.4256 91.7903 18.5557C91.5634 18.6857 91.3748 18.8733 91.2434 19.0994C91.1993 19.1757 91.1406 19.2425 91.0707 19.296C91.0007 19.3495 90.9209 19.3887 90.8357 19.4113C90.7506 19.434 90.6618 19.4396 90.5745 19.4278C90.4872 19.416 90.4031 19.3872 90.3269 19.3428C90.2522 19.2986 90.187 19.24 90.135 19.1705C90.083 19.1009 90.0453 19.0218 90.024 18.9376C90.0027 18.8534 89.9983 18.7659 90.011 18.68C90.0236 18.5941 90.0531 18.5115 90.0978 18.4371C90.3333 18.0316 90.6658 17.6909 91.0655 17.4456C91.4652 17.2003 91.9195 17.0581 92.3877 17.0318C92.8559 17.0055 93.3233 17.0959 93.748 17.2948C94.1726 17.4937 94.5413 17.795 94.8207 18.1716C95.1002 18.5482 95.2817 18.9883 95.3491 19.4524C95.4164 19.9164 95.3675 20.39 95.2066 20.8305C95.0458 21.271 94.778 21.6646 94.4275 21.9761C94.0769 22.2875 93.6545 22.5071 93.1981 22.615ZM93.1981 25.5685V25.8119C93.2001 25.8992 93.1843 25.9861 93.1516 26.0671C93.119 26.1482 93.0702 26.2217 93.0083 26.2834C92.9463 26.345 92.8725 26.3933 92.7913 26.4255C92.7101 26.4577 92.6231 26.4731 92.5358 26.4706C92.3611 26.4706 92.1935 26.4012 92.07 26.2777C91.9465 26.1541 91.8771 25.9866 91.8771 25.8119V25.5685C91.8789 25.394 91.9488 25.2271 92.0718 25.1034C92.1949 24.9797 92.3614 24.9089 92.5358 24.9062C92.623 24.9052 92.7096 24.9217 92.7904 24.9546C92.8712 24.9876 92.9446 25.0363 93.0063 25.098C93.0679 25.1597 93.1167 25.2331 93.1496 25.3139C93.1826 25.3947 93.1991 25.4812 93.1981 25.5685Z" fill="#262262"/>
<path d="M93.1981 22.615V23.4921C93.2006 23.5797 93.1851 23.6669 93.1527 23.7484C93.1203 23.8299 93.0716 23.9039 93.0096 23.9659C92.9476 24.0279 92.8736 24.0766 92.7921 24.109C92.7107 24.1414 92.6234 24.1568 92.5358 24.1544C92.449 24.1544 92.363 24.1372 92.2829 24.1039C92.2027 24.0705 92.13 24.0217 92.0687 23.9602C92.0075 23.8986 91.9591 23.8256 91.9262 23.7452C91.8933 23.6649 91.8766 23.5789 91.8771 23.4921V22.0923C91.8771 22.0923 91.8771 22.0923 91.8771 22.0636C91.8771 22.035 91.8771 22.0636 91.8771 22.0386C91.8816 21.865 91.9523 21.6996 92.0748 21.5765C92.1973 21.4533 92.3622 21.3817 92.5358 21.3763C92.7401 21.3862 92.9444 21.3546 93.1361 21.2832C93.3279 21.2119 93.5031 21.1024 93.6513 20.9613C93.7994 20.8202 93.9173 20.6504 93.9979 20.4624C94.0785 20.2743 94.1201 20.0719 94.1201 19.8673C94.1201 19.6627 94.0785 19.4603 93.9979 19.2722C93.9173 19.0842 93.7994 18.9145 93.6513 18.7734C93.5031 18.6323 93.3279 18.5227 93.1361 18.4514C92.9444 18.38 92.7401 18.3484 92.5358 18.3583C92.2743 18.3575 92.0172 18.4256 91.7903 18.5557C91.5634 18.6857 91.3748 18.8733 91.2434 19.0994C91.1993 19.1757 91.1406 19.2425 91.0707 19.296C91.0007 19.3495 90.9209 19.3887 90.8357 19.4113C90.7506 19.434 90.6618 19.4396 90.5745 19.4278C90.4872 19.416 90.4031 19.3872 90.3269 19.3428C90.2522 19.2986 90.187 19.24 90.135 19.1705C90.083 19.1009 90.0453 19.0218 90.024 18.9376C90.0027 18.8534 89.9983 18.7659 90.011 18.68C90.0236 18.5941 90.0531 18.5115 90.0978 18.4371C90.3333 18.0316 90.6658 17.6909 91.0655 17.4456C91.4652 17.2003 91.9195 17.0581 92.3877 17.0318C92.8559 17.0055 93.3233 17.0959 93.748 17.2948C94.1726 17.4937 94.5413 17.795 94.8207 18.1716C95.1002 18.5482 95.2817 18.9883 95.3491 19.4524C95.4164 19.9164 95.3675 20.39 95.2066 20.8305C95.0458 21.271 94.778 21.6646 94.4275 21.9761C94.0769 22.2875 93.6545 22.5071 93.1981 22.615ZM93.1981 25.5685V25.8119C93.2001 25.8992 93.1843 25.9861 93.1516 26.0671C93.119 26.1482 93.0702 26.2217 93.0083 26.2834C92.9463 26.345 92.8725 26.3933 92.7913 26.4255C92.7101 26.4577 92.6231 26.4731 92.5358 26.4706C92.3611 26.4706 92.1935 26.4012 92.07 26.2777C91.9465 26.1541 91.8771 25.9866 91.8771 25.8119V25.5685C91.8789 25.394 91.9488 25.2271 92.0718 25.1034C92.1949 24.9797 92.3614 24.9089 92.5358 24.9062C92.623 24.9052 92.7096 24.9217 92.7904 24.9546C92.8712 24.9876 92.9446 25.0363 93.0063 25.098C93.0679 25.1597 93.1167 25.2331 93.1496 25.3139C93.1826 25.3947 93.1991 25.4812 93.1981 25.5685Z" fill="black" fill-opacity="0.2"/>
</svg>
