<svg width="36" height="37" viewBox="0 0 36 37" fill="none" xmlns="http://www.w3.org/2000/svg">
<rect y="0.5" width="36" height="36" rx="18" fill="#00798F"/>
<path d="M12.62 17.29C14.06 20.12 16.38 22.44 19.21 23.88L21.41 21.68C21.69 21.4 22.08 21.32 22.43 21.43C23.55 21.8 24.75 22 26 22C26.2652 22 26.5196 22.1054 26.7071 22.2929C26.8946 22.4804 27 22.7348 27 23V26.5C27 26.7652 26.8946 27.0196 26.7071 27.2071C26.5196 27.3946 26.2652 27.5 26 27.5C21.4913 27.5 17.1673 25.7089 13.9792 22.5208C10.7911 19.3327 9 15.0087 9 10.5C9 10.2348 9.10536 9.98043 9.29289 9.79289C9.48043 9.60536 9.73478 9.5 10 9.5H13.5C13.7652 9.5 14.0196 9.60536 14.2071 9.79289C14.3946 9.98043 14.5 10.2348 14.5 10.5C14.5 11.75 14.7 12.95 15.07 14.07C15.18 14.42 15.1 14.81 14.82 15.09L12.62 17.29Z" fill="white"/>
</svg>
