<svg width="20" height="20" viewBox="0 0 20 20" fill="none" xmlns="http://www.w3.org/2000/svg">
<path d="M19.85 9.1H10.68V11.83H17.19C16.86 15.64 13.69 17.27 10.69 17.27C6.86003 17.27 3.50003 14.25 3.50003 10C3.50003 5.9 6.70003 2.73 10.7 2.73C13.79 2.73 15.6 4.7 15.6 4.7L17.5 2.72C17.5 2.72 15.06 0 10.6 0C4.92003 0 0.530029 4.8 0.530029 10C0.530029 15.05 4.66003 20 10.75 20C16.1 20 20 16.33 20 10.91C20 9.76 19.85 9.1 19.85 9.1Z" fill="#262262"/>
<path d="M19.85 9.1H10.68V11.83H17.19C16.86 15.64 13.69 17.27 10.69 17.27C6.86003 17.27 3.50003 14.25 3.50003 10C3.50003 5.9 6.70003 2.73 10.7 2.73C13.79 2.73 15.6 4.7 15.6 4.7L17.5 2.72C17.5 2.72 15.06 0 10.6 0C4.92003 0 0.530029 4.8 0.530029 10C0.530029 15.05 4.66003 20 10.75 20C16.1 20 20 16.33 20 10.91C20 9.76 19.85 9.1 19.85 9.1Z" fill="black" fill-opacity="0.2"/>
</svg>
