<svg xmlns="http://www.w3.org/2000/svg" width="17" height="18" viewBox="0 0 17 18" fill="none">
  <path d="M15.0486 8.72209C15.2401 8.52627 15.3735 8.28108 15.4339 8.01387C15.4942 7.74666 15.4791 7.46794 15.3903 7.2088C15.3069 6.9489 15.1523 6.71763 14.9439 6.54132C14.7355 6.36502 14.4818 6.25076 14.2117 6.21157L11.22 5.7513C11.2061 5.74726 11.1932 5.74015 11.1823 5.7305C11.1715 5.72085 11.1629 5.7089 11.1573 5.69551L9.8462 2.90604C9.73124 2.64483 9.54279 2.4227 9.30382 2.26668C9.06485 2.11067 8.78567 2.02752 8.50028 2.02736C8.2182 2.02619 7.94178 2.10652 7.70425 2.25868C7.46672 2.41085 7.2782 2.62838 7.16134 2.88512L5.85028 5.67459C5.84313 5.68819 5.83324 5.70017 5.82124 5.70977C5.80924 5.71937 5.79539 5.72639 5.78055 5.73038L2.79581 6.21157C2.5253 6.25187 2.27127 6.36642 2.06197 6.54247C1.85267 6.71853 1.69631 6.94919 1.61028 7.2088C1.52471 7.46884 1.51197 7.74734 1.57344 8.01411C1.63491 8.28087 1.76823 8.52572 1.95897 8.72209L4.16265 10.9885C4.169 11.0028 4.17227 11.0183 4.17227 11.0339C4.17227 11.0495 4.169 11.0649 4.16265 11.0792L3.6466 14.2452C3.59863 14.521 3.6299 14.8047 3.73679 15.0633C3.84367 15.322 4.02178 15.545 4.25041 15.7064C4.47903 15.8678 4.74878 15.961 5.02829 15.9752C5.3078 15.9894 5.58559 15.9239 5.82936 15.7864L8.43055 14.3429C8.44347 14.3362 8.45782 14.3326 8.47239 14.3326C8.48696 14.3326 8.50131 14.3362 8.51423 14.3429L11.1154 15.7864C11.3595 15.921 11.6365 15.9841 11.9148 15.9686C12.1931 15.9531 12.4614 15.8597 12.6891 15.6989C12.9168 15.5382 13.0946 15.3166 13.2023 15.0595C13.31 14.8025 13.3433 14.5203 13.2982 14.2452L12.817 11.0931C12.8096 11.0804 12.8058 11.066 12.8058 11.0513C12.8058 11.0366 12.8096 11.0222 12.817 11.0095L15.0486 8.72209Z" fill="#F3A218"/>
</svg>