<svg width="18" height="18" viewBox="0 0 18 18" fill="none" xmlns="http://www.w3.org/2000/svg">
<g id="star (1) 5">
<path id="Vector" d="M15.6794 8.72209C15.871 8.52627 16.0044 8.28108 16.0647 8.01387C16.1251 7.74666 16.11 7.46794 16.0211 7.2088C15.9378 6.9489 15.7831 6.71763 15.5747 6.54132C15.3664 6.36502 15.1127 6.25076 14.8426 6.21157L11.8509 5.7513C11.8369 5.74726 11.8241 5.74015 11.8132 5.7305C11.8023 5.72085 11.7938 5.7089 11.7881 5.69551L10.4771 2.90604C10.3621 2.64483 10.1737 2.4227 9.93468 2.26668C9.69571 2.11067 9.41653 2.02752 9.13114 2.02736C8.84906 2.02619 8.57264 2.10652 8.33511 2.25868C8.09758 2.41085 7.90906 2.62838 7.79219 2.88512L6.48114 5.67459C6.47399 5.68819 6.4641 5.70017 6.4521 5.70977C6.4401 5.71937 6.42625 5.72639 6.41141 5.73038L3.42667 6.21157C3.15616 6.25187 2.90213 6.36642 2.69283 6.54247C2.48353 6.71853 2.32717 6.94919 2.24114 7.2088C2.15557 7.46884 2.14283 7.74734 2.2043 8.01411C2.26577 8.28087 2.39909 8.52572 2.58983 8.72209L4.79351 10.9885C4.79986 11.0028 4.80313 11.0183 4.80313 11.0339C4.80313 11.0495 4.79986 11.0649 4.79351 11.0792L4.27746 14.2452C4.22948 14.521 4.26076 14.8047 4.36765 15.0633C4.47453 15.322 4.65264 15.545 4.88127 15.7064C5.10989 15.8678 5.37964 15.961 5.65915 15.9752C5.93865 15.9894 6.21645 15.9239 6.46022 15.7864L9.06141 14.3429C9.07433 14.3362 9.08868 14.3326 9.10325 14.3326C9.11781 14.3326 9.13217 14.3362 9.14509 14.3429L11.7463 15.7864C11.9904 15.921 12.2674 15.9841 12.5457 15.9686C12.824 15.9531 13.0923 15.8597 13.32 15.6989C13.5476 15.5382 13.7255 15.3166 13.8332 15.0595C13.9409 14.8025 13.9741 14.5203 13.929 14.2452L13.4479 11.0931C13.4405 11.0804 13.4366 11.066 13.4366 11.0513C13.4366 11.0366 13.4405 11.0222 13.4479 11.0095L15.6794 8.72209Z" fill="#98A2B3"/>
</g>
</svg>
