<svg width="144" height="144" viewBox="0 0 144 144" fill="none" xmlns="http://www.w3.org/2000/svg">
<g filter="url(#filter0_d_627_1860)">
<circle cx="72" cy="68" r="22" fill="#F3A218"/>
<path d="M70 58C68.89 58 68 58.89 68 60V63C68 64.11 68.89 65 70 65H71V67H62V69H66V71H65C63.89 71 63 71.89 63 73V76C63 77.11 63.89 78 65 78H69C70.11 78 71 77.11 71 76V73C71 71.89 70.11 71 69 71H68V69H76V71H75C73.89 71 73 71.89 73 73V76C73 77.11 73.89 78 75 78H79C80.11 78 81 77.11 81 76V73C81 71.89 80.11 71 79 71H78V69H82V67H73V65H74C75.11 65 76 64.11 76 63V60C76 58.89 75.11 58 74 58H70ZM70 60H74V63H70V60ZM65 73H69V76H65V73ZM75 73H79V76H75V73Z" fill="white"/>
</g>
<defs>
<filter id="filter0_d_627_1860" x="0" y="0" width="144" height="144" filterUnits="userSpaceOnUse" color-interpolation-filters="sRGB">
<feFlood flood-opacity="0" result="BackgroundImageFix"/>
<feColorMatrix in="SourceAlpha" type="matrix" values="0 0 0 0 0 0 0 0 0 0 0 0 0 0 0 0 0 0 127 0" result="hardAlpha"/>
<feOffset dy="4"/>
<feGaussianBlur stdDeviation="25"/>
<feComposite in2="hardAlpha" operator="out"/>
<feColorMatrix type="matrix" values="0 0 0 0 0.345833 0 0 0 0 0.344392 0 0 0 0 0.344392 0 0 0 0.1 0"/>
<feBlend mode="normal" in2="BackgroundImageFix" result="effect1_dropShadow_627_1860"/>
<feBlend mode="normal" in="SourceGraphic" in2="effect1_dropShadow_627_1860" result="shape"/>
</filter>
</defs>
</svg>
