<svg width="36" height="36" viewBox="0 0 36 36" fill="none" xmlns="http://www.w3.org/2000/svg">
<path d="M21 3C17.8174 3 14.7652 4.26428 12.5147 6.51472C10.2643 8.76516 9 11.8174 9 15C9 18.1826 10.2643 21.2348 12.5147 23.4853C14.7652 25.7357 17.8174 27 21 27C24.1826 27 27.2348 25.7357 29.4853 23.4853C31.7357 21.2348 33 18.1826 33 15C33 11.8174 31.7357 8.76516 29.4853 6.51472C27.2348 4.26428 24.1826 3 21 3ZM21 6C25.98 6 30 10.035 30 15C30 19.98 25.98 24 21 24C18.6131 24 16.3239 23.0518 14.636 21.364C12.9482 19.6761 12 17.3869 12 15C12 12.6131 12.9482 10.3239 14.636 8.63604C16.3239 6.94821 18.6131 6 21 6ZM7.395 8.73C4.62 11.01 3 14.415 3 18C3 21.1826 4.26428 24.2348 6.51472 26.4853C8.76516 28.7357 11.8174 30 15 30C15.96 30 16.905 29.88 17.82 29.655C15.18 29.07 12.75 27.75 10.755 25.935C7.83 24.375 6 21.315 6 18C6 17.55 6.045 17.115 6.105 16.665C6.045 16.11 6 15.555 6 15C6 12.84 6.48 10.695 7.395 8.73Z" fill="#98A2B3"/>
</svg>
