<svg width="25" height="19" viewBox="0 0 25 19" fill="none" xmlns="http://www.w3.org/2000/svg">
<path d="M24.4776 3.01561C24.1901 1.90702 23.3429 1.03392 22.2673 0.737625C20.3177 0.199219 12.5 0.199219 12.5 0.199219C12.5 0.199219 4.68232 0.199219 2.73266 0.737625C1.65706 1.03397 0.80992 1.90702 0.522399 3.01561C0 5.025 0 9.21741 0 9.21741C0 9.21741 0 13.4098 0.522399 15.4192C0.80992 16.5278 1.65706 17.3645 2.73266 17.6608C4.68232 18.1992 12.5 18.1992 12.5 18.1992C12.5 18.1992 20.3177 18.1992 22.2673 17.6608C23.3429 17.3645 24.1901 16.5278 24.4776 15.4192C25 13.4098 25 9.21741 25 9.21741C25 9.21741 25 5.025 24.4776 3.01561ZM9.94316 13.0238V5.41102L16.4772 9.2175L9.94316 13.0238Z" fill="#727A86"/>
</svg>
