<svg width="24" height="24" viewBox="0 0 24 24" fill="none" xmlns="http://www.w3.org/2000/svg">
<path fill-rule="evenodd" clip-rule="evenodd" d="M4.64761 2.35336C5.93854 1.06243 8.07355 1.21416 9.16893 2.67468L10.9872 5.09904C11.8829 6.2934 11.7642 7.96469 10.7085 9.02036L9.36796 10.3609C9.49788 10.6991 9.92556 11.4411 11.2279 12.7435C12.5303 14.0459 13.2724 14.4736 13.6106 14.6035L14.9511 13.263C16.0068 12.2073 17.6781 12.0885 18.8724 12.9843L21.2968 14.8026C22.7573 15.898 22.9091 18.033 21.6181 19.3239C21.1984 19.7436 21.1274 19.8146 20.427 20.515C19.7132 21.2288 18.1976 21.896 16.663 21.9627C14.2617 22.0671 11 21.0009 6.98532 16.9862C2.97065 12.9715 1.90438 9.70977 2.00879 7.30844C2.06687 5.97264 2.49156 4.50551 3.46209 3.55005C4.15689 2.84408 4.24725 2.75372 4.64761 2.35336ZM4.0069 7.39532C3.93453 9.05986 4.63604 11.8085 8.39954 15.572C12.163 19.3355 14.9116 20.037 16.5762 19.9646C18.13 19.897 18.9636 19.1462 19.0128 19.1008L20.2039 17.9097C20.6342 17.4794 20.5837 16.7677 20.0968 16.4026L17.6724 14.5843C17.2743 14.2857 16.7172 14.3253 16.3653 14.6772C15.8352 15.2074 15.4732 15.5746 14.7648 16.2804C13.2932 17.7465 10.7741 15.1181 9.81375 14.1578C8.93117 13.2752 6.24151 10.6761 7.68965 9.21082C7.69252 9.20794 8.08257 8.81789 9.29431 7.60615C9.6462 7.25426 9.6858 6.69716 9.38721 6.29904L7.56893 3.87468C7.2038 3.38784 6.49213 3.33726 6.06183 3.76757C5.66577 4.16362 5.21755 4.61184 4.87192 4.95987C4.16055 5.67616 4.04497 6.51972 4.0069 7.39532Z" fill="white"/>
</svg>
