<svg width="240" height="239" viewBox="0 0 240 239" fill="none" xmlns="http://www.w3.org/2000/svg">
<g filter="url(#filter0_d_791_7858)">
<rect x="50.5" y="46" width="139" height="139" rx="69.5" fill="white"/>
</g>
<rect x="95.998" y="80.75" width="22.9278" height="6.44845" rx="3.22423" fill="white"/>
<path opacity="0.9" d="M95.998 96.1539C95.998 94.3732 97.4416 92.9297 99.2223 92.9297H140.779C142.56 92.9297 144.003 94.3732 144.003 96.1539C144.003 97.9346 142.56 99.3781 140.779 99.3781H99.2223C97.4416 99.3781 95.998 97.9346 95.998 96.1539Z" fill="white"/>
<path opacity="0.8" d="M95.998 108.336C95.998 106.555 97.4416 105.111 99.2223 105.111H131.106C132.887 105.111 134.331 106.555 134.331 108.336C134.331 110.116 132.887 111.56 131.106 111.56H99.2223C97.4416 111.56 95.998 110.116 95.998 108.336Z" fill="white"/>
<path opacity="0.6" d="M102.199 123.739H122.508C123.3 123.739 123.941 123.098 123.941 122.306V118.724C123.941 117.933 123.3 117.291 122.508 117.291H97.431C96.6396 117.291 95.998 117.933 95.998 118.724V120.994L102.199 123.739Z" fill="white"/>
<path d="M149.334 115.501L142.827 108.087L143.734 98.2741L134.107 96.0874L129.067 87.6074L120 91.5008L110.934 87.6074L105.894 96.0874L96.267 98.2474L97.1737 108.061L90.667 115.501L97.1737 122.914L96.267 132.754L105.894 134.941L110.934 143.421L120 139.501L129.067 143.394L134.107 134.914L143.734 132.727L142.827 122.914L149.334 115.501ZM114.667 128.834L104 118.167L107.76 114.407L114.667 121.287L132.24 103.714L136 107.501L114.667 128.834Z" fill="#0F973D"/>
<defs>
<filter id="filter0_d_791_7858" x="0.5" y="0" width="239" height="239" filterUnits="userSpaceOnUse" color-interpolation-filters="sRGB">
<feFlood flood-opacity="0" result="BackgroundImageFix"/>
<feColorMatrix in="SourceAlpha" type="matrix" values="0 0 0 0 0 0 0 0 0 0 0 0 0 0 0 0 0 0 127 0" result="hardAlpha"/>
<feOffset dy="4"/>
<feGaussianBlur stdDeviation="25"/>
<feComposite in2="hardAlpha" operator="out"/>
<feColorMatrix type="matrix" values="0 0 0 0 0.345833 0 0 0 0 0.344392 0 0 0 0 0.344392 0 0 0 0.1 0"/>
<feBlend mode="normal" in2="BackgroundImageFix" result="effect1_dropShadow_791_7858"/>
<feBlend mode="normal" in="SourceGraphic" in2="effect1_dropShadow_791_7858" result="shape"/>
</filter>
</defs>
</svg>
