<svg width="36" height="36" viewBox="0 0 36 36" fill="none" xmlns="http://www.w3.org/2000/svg">
<path d="M21 3C17.8174 3 14.7652 4.26428 12.5147 6.51472C10.2643 8.76516 9 11.8174 9 15C9 18.1826 10.2643 21.2348 12.5147 23.4853C14.7652 25.7357 17.8174 27 21 27C24.1826 27 27.2348 25.7357 29.4853 23.4853C31.7357 21.2348 33 18.1826 33 15C33 11.8174 31.7357 8.76516 29.4853 6.51472C27.2348 4.26428 24.1826 3 21 3ZM7.395 8.73C4.62 11.01 3 14.415 3 18C3 21.1826 4.26428 24.2348 6.51472 26.4853C8.76516 28.7357 11.8174 30 15 30C15.96 30 16.905 29.88 17.82 29.655C15.18 29.07 12.75 27.75 10.755 25.935C7.83 24.375 6 21.315 6 18C6 17.55 6.045 17.115 6.105 16.665C6.045 16.11 6 15.555 6 15C6 12.84 6.48 10.695 7.395 8.73ZM27.135 9.12L29.25 11.25L19.5 21L13.815 15.315L15.945 13.185L19.5 16.755" fill="#262262"/>
<path d="M21 3C17.8174 3 14.7652 4.26428 12.5147 6.51472C10.2643 8.76516 9 11.8174 9 15C9 18.1826 10.2643 21.2348 12.5147 23.4853C14.7652 25.7357 17.8174 27 21 27C24.1826 27 27.2348 25.7357 29.4853 23.4853C31.7357 21.2348 33 18.1826 33 15C33 11.8174 31.7357 8.76516 29.4853 6.51472C27.2348 4.26428 24.1826 3 21 3ZM7.395 8.73C4.62 11.01 3 14.415 3 18C3 21.1826 4.26428 24.2348 6.51472 26.4853C8.76516 28.7357 11.8174 30 15 30C15.96 30 16.905 29.88 17.82 29.655C15.18 29.07 12.75 27.75 10.755 25.935C7.83 24.375 6 21.315 6 18C6 17.55 6.045 17.115 6.105 16.665C6.045 16.11 6 15.555 6 15C6 12.84 6.48 10.695 7.395 8.73ZM27.135 9.12L29.25 11.25L19.5 21L13.815 15.315L15.945 13.185L19.5 16.755" fill="black" fill-opacity="0.2"/>
</svg>
