<svg width="36" height="36" viewBox="0 0 36 36" fill="none" xmlns="http://www.w3.org/2000/svg">
<path d="M23.8504 27.675C25.8754 27.675 27.5254 26.025 27.5254 24C27.5254 21.975 25.8754 20.325 23.8504 20.325C21.8104 20.325 20.1754 21.975 20.1754 24C20.1754 26.025 21.8104 27.675 23.8504 27.675ZM31.6504 25.02L33.8704 26.76C34.0654 26.925 34.1254 27.195 33.9904 27.435L31.8904 31.065C31.7554 31.29 31.5004 31.38 31.2454 31.29L28.6354 30.24C28.0954 30.66 27.4954 31.005 26.8654 31.275L26.4604 34.05C26.4304 34.305 26.2054 34.5 25.9504 34.5H21.7504C21.4804 34.5 21.2704 34.305 21.2254 34.05L20.8354 31.275C20.1904 31.005 19.6054 30.66 19.0654 30.24L16.4404 31.29C16.2154 31.38 15.9304 31.29 15.8104 31.065L13.7104 27.435C13.5754 27.195 13.6354 26.925 13.8304 26.76L16.0504 25.02L15.9754 24L16.0504 22.965L13.8304 21.24C13.6354 21.075 13.5754 20.79 13.7104 20.565L15.8104 16.935C15.9304 16.695 16.2154 16.605 16.4404 16.695L19.0654 17.76C19.6054 17.34 20.1904 16.98 20.8354 16.725L21.2254 13.935C21.2704 13.695 21.4804 13.5 21.7504 13.5H25.9504C26.2054 13.5 26.4304 13.695 26.4604 13.935L26.8654 16.725C27.4954 16.98 28.0954 17.34 28.6354 17.76L31.2454 16.695C31.5004 16.605 31.7554 16.695 31.8904 16.935L33.9904 20.565C34.1254 20.79 34.0654 21.075 33.8704 21.24L31.6504 22.965L31.7254 24L31.6504 25.02ZM10.0354 12.105C11.3404 12.105 12.3904 11.055 12.3904 9.75C12.3904 8.445 11.3404 7.38 10.0354 7.38C9.40684 7.38 8.80402 7.6297 8.35956 8.07416C7.9151 8.51862 7.6654 9.12144 7.6654 9.75C7.6654 11.055 8.7304 12.105 10.0354 12.105ZM15.0454 10.41L16.5004 11.52C16.6054 11.625 16.6354 11.805 16.5454 11.955L15.1954 14.295C15.1204 14.445 14.9404 14.505 14.7904 14.445L13.1104 13.77L12.0004 14.43L11.7154 16.215C11.6854 16.38 11.5504 16.5 11.3854 16.5H8.6854C8.5054 16.5 8.3704 16.38 8.3404 16.215L8.1004 14.43L6.9604 13.77L5.2504 14.445C5.1154 14.505 4.9504 14.445 4.8604 14.295L3.5104 11.955C3.4204 11.805 3.4654 11.625 3.5854 11.52L5.0104 10.41L4.9654 9.75L5.0104 9.09L3.5854 7.98C3.4654 7.875 3.4204 7.695 3.5104 7.545L4.8604 5.205C4.9504 5.055 5.1154 4.995 5.2504 5.055L6.9454 5.73L8.1004 5.07L8.3404 3.285C8.3704 3.12 8.5054 3 8.6854 3H11.3854C11.5504 3 11.6854 3.12 11.7154 3.285L12.0004 5.07L13.1104 5.73L14.7904 5.055C14.9404 4.995 15.1204 5.055 15.1954 5.205L16.5454 7.545C16.6354 7.695 16.6054 7.875 16.5004 7.98L15.0454 9.09L15.0904 9.75L15.0454 10.41Z" fill="#262262"/>
<path d="M23.8504 27.675C25.8754 27.675 27.5254 26.025 27.5254 24C27.5254 21.975 25.8754 20.325 23.8504 20.325C21.8104 20.325 20.1754 21.975 20.1754 24C20.1754 26.025 21.8104 27.675 23.8504 27.675ZM31.6504 25.02L33.8704 26.76C34.0654 26.925 34.1254 27.195 33.9904 27.435L31.8904 31.065C31.7554 31.29 31.5004 31.38 31.2454 31.29L28.6354 30.24C28.0954 30.66 27.4954 31.005 26.8654 31.275L26.4604 34.05C26.4304 34.305 26.2054 34.5 25.9504 34.5H21.7504C21.4804 34.5 21.2704 34.305 21.2254 34.05L20.8354 31.275C20.1904 31.005 19.6054 30.66 19.0654 30.24L16.4404 31.29C16.2154 31.38 15.9304 31.29 15.8104 31.065L13.7104 27.435C13.5754 27.195 13.6354 26.925 13.8304 26.76L16.0504 25.02L15.9754 24L16.0504 22.965L13.8304 21.24C13.6354 21.075 13.5754 20.79 13.7104 20.565L15.8104 16.935C15.9304 16.695 16.2154 16.605 16.4404 16.695L19.0654 17.76C19.6054 17.34 20.1904 16.98 20.8354 16.725L21.2254 13.935C21.2704 13.695 21.4804 13.5 21.7504 13.5H25.9504C26.2054 13.5 26.4304 13.695 26.4604 13.935L26.8654 16.725C27.4954 16.98 28.0954 17.34 28.6354 17.76L31.2454 16.695C31.5004 16.605 31.7554 16.695 31.8904 16.935L33.9904 20.565C34.1254 20.79 34.0654 21.075 33.8704 21.24L31.6504 22.965L31.7254 24L31.6504 25.02ZM10.0354 12.105C11.3404 12.105 12.3904 11.055 12.3904 9.75C12.3904 8.445 11.3404 7.38 10.0354 7.38C9.40684 7.38 8.80402 7.6297 8.35956 8.07416C7.9151 8.51862 7.6654 9.12144 7.6654 9.75C7.6654 11.055 8.7304 12.105 10.0354 12.105ZM15.0454 10.41L16.5004 11.52C16.6054 11.625 16.6354 11.805 16.5454 11.955L15.1954 14.295C15.1204 14.445 14.9404 14.505 14.7904 14.445L13.1104 13.77L12.0004 14.43L11.7154 16.215C11.6854 16.38 11.5504 16.5 11.3854 16.5H8.6854C8.5054 16.5 8.3704 16.38 8.3404 16.215L8.1004 14.43L6.9604 13.77L5.2504 14.445C5.1154 14.505 4.9504 14.445 4.8604 14.295L3.5104 11.955C3.4204 11.805 3.4654 11.625 3.5854 11.52L5.0104 10.41L4.9654 9.75L5.0104 9.09L3.5854 7.98C3.4654 7.875 3.4204 7.695 3.5104 7.545L4.8604 5.205C4.9504 5.055 5.1154 4.995 5.2504 5.055L6.9454 5.73L8.1004 5.07L8.3404 3.285C8.3704 3.12 8.5054 3 8.6854 3H11.3854C11.5504 3 11.6854 3.12 11.7154 3.285L12.0004 5.07L13.1104 5.73L14.7904 5.055C14.9404 4.995 15.1204 5.055 15.1954 5.205L16.5454 7.545C16.6354 7.695 16.6054 7.875 16.5004 7.98L15.0454 9.09L15.0904 9.75L15.0454 10.41Z" fill="black" fill-opacity="0.2"/>
</svg>
