<svg width="33" height="24" viewBox="0 0 33 24" fill="none" xmlns="http://www.w3.org/2000/svg">
<path d="M27 21H6V3H27M30 0H3C1.335 0 0 1.335 0 3V21C0 21.7956 0.316071 22.5587 0.87868 23.1213C1.44129 23.6839 2.20435 24 3 24H30C30.7956 24 31.5587 23.6839 32.1213 23.1213C32.6839 22.5587 33 21.7956 33 21V3C33 1.335 31.65 0 30 0ZM9 6H18V13.5H9V6ZM19.5 6H24V9H19.5V6ZM24 10.5V18H19.5V10.5H24ZM9 15H18V18H9V15Z" fill="#262262"/>
<path d="M27 21H6V3H27M30 0H3C1.335 0 0 1.335 0 3V21C0 21.7956 0.316071 22.5587 0.87868 23.1213C1.44129 23.6839 2.20435 24 3 24H30C30.7956 24 31.5587 23.6839 32.1213 23.1213C32.6839 22.5587 33 21.7956 33 21V3C33 1.335 31.65 0 30 0ZM9 6H18V13.5H9V6ZM19.5 6H24V9H19.5V6ZM24 10.5V18H19.5V10.5H24ZM9 15H18V18H9V15Z" fill="black" fill-opacity="0.2"/>
</svg>
