<svg width="19" height="22" viewBox="0 0 19 22" fill="none" xmlns="http://www.w3.org/2000/svg">
<path d="M18.373 5.03516C18.373 6.96516 16.803 8.53516 14.873 8.53516C12.943 8.53516 11.373 6.96516 11.373 5.03516C11.373 3.10516 12.943 1.53516 14.873 1.53516C16.803 1.53516 18.373 3.10516 18.373 5.03516ZM16.373 10.3252C15.873 10.4552 15.373 10.5352 14.873 10.5352C11.843 10.5352 9.37305 8.06516 9.37305 5.03516C9.37305 3.56516 9.95305 2.23516 10.873 1.24516C10.523 0.815156 9.98305 0.535156 9.37305 0.535156C8.27305 0.535156 7.37305 1.43516 7.37305 2.53516V2.82516C4.40305 3.70516 2.37305 6.43516 2.37305 9.53516V15.5352L0.373047 17.5352V18.5352H18.373V17.5352L16.373 15.5352V10.3252ZM9.37305 21.5352C10.483 21.5352 11.373 20.6452 11.373 19.5352H7.37305C7.37305 20.6452 8.27305 21.5352 9.37305 21.5352Z" fill="#262262"/>
<path d="M18.373 5.03516C18.373 6.96516 16.803 8.53516 14.873 8.53516C12.943 8.53516 11.373 6.96516 11.373 5.03516C11.373 3.10516 12.943 1.53516 14.873 1.53516C16.803 1.53516 18.373 3.10516 18.373 5.03516ZM16.373 10.3252C15.873 10.4552 15.373 10.5352 14.873 10.5352C11.843 10.5352 9.37305 8.06516 9.37305 5.03516C9.37305 3.56516 9.95305 2.23516 10.873 1.24516C10.523 0.815156 9.98305 0.535156 9.37305 0.535156C8.27305 0.535156 7.37305 1.43516 7.37305 2.53516V2.82516C4.40305 3.70516 2.37305 6.43516 2.37305 9.53516V15.5352L0.373047 17.5352V18.5352H18.373V17.5352L16.373 15.5352V10.3252ZM9.37305 21.5352C10.483 21.5352 11.373 20.6452 11.373 19.5352H7.37305C7.37305 20.6452 8.27305 21.5352 9.37305 21.5352Z" fill="black" fill-opacity="0.2"/>
</svg>
