<svg width="144" height="144" viewBox="0 0 144 144" fill="none" xmlns="http://www.w3.org/2000/svg">
<g filter="url(#filter0_d_627_1868)">
<circle cx="72" cy="68" r="22" fill="#65387F"/>
<path d="M79.2217 58.5703H65.2217C64.1217 58.5703 63.2217 59.4703 63.2217 60.5703V74.5703C63.2217 75.6703 64.1217 76.5703 65.2217 76.5703H79.2217C80.3217 76.5703 81.2217 75.6703 81.2217 74.5703V60.5703C81.2217 59.4703 80.3217 58.5703 79.2217 58.5703ZM67.2217 62.5703H69.2217V64.5703H67.2217V62.5703ZM67.2217 66.5703H69.2217V68.5703H67.2217V66.5703ZM67.2217 70.5703H69.2217V72.5703H67.2217V70.5703ZM77.2217 72.5703H71.2217V70.5703H77.2217V72.5703ZM77.2217 68.5703H71.2217V66.5703H77.2217V68.5703ZM77.2217 64.5703H71.2217V62.5703H77.2217V64.5703Z" fill="white"/>
</g>
<defs>
<filter id="filter0_d_627_1868" x="0" y="0" width="144" height="144" filterUnits="userSpaceOnUse" color-interpolation-filters="sRGB">
<feFlood flood-opacity="0" result="BackgroundImageFix"/>
<feColorMatrix in="SourceAlpha" type="matrix" values="0 0 0 0 0 0 0 0 0 0 0 0 0 0 0 0 0 0 127 0" result="hardAlpha"/>
<feOffset dy="4"/>
<feGaussianBlur stdDeviation="25"/>
<feComposite in2="hardAlpha" operator="out"/>
<feColorMatrix type="matrix" values="0 0 0 0 0.345833 0 0 0 0 0.344392 0 0 0 0 0.344392 0 0 0 0.1 0"/>
<feBlend mode="normal" in2="BackgroundImageFix" result="effect1_dropShadow_627_1868"/>
<feBlend mode="normal" in="SourceGraphic" in2="effect1_dropShadow_627_1868" result="shape"/>
</filter>
</defs>
</svg>
